# Blender 4.1.1
# www.blender.org
mtllib Cube.073.mtl
o Cube.073
v -12.471140 50.457703 130.480545
v -12.471140 50.591187 130.122467
v -12.471140 51.688934 130.939529
v -12.471140 51.740196 130.802032
v -12.928189 50.457703 130.480545
v -12.928189 50.591187 130.122467
v -12.928188 51.688934 130.939529
v -12.928188 51.740196 130.802032
v -1.782184 46.455284 122.207840
v -1.901971 46.434601 122.191330
v -1.998411 46.375347 122.144020
v -2.052402 46.289265 122.075287
v -2.053252 46.193398 121.998749
v -2.000791 46.106735 121.929550
v -1.905410 46.046448 121.881416
v -1.786000 46.024467 121.863869
v -1.666212 46.045151 121.880386
v -1.569772 46.104404 121.927689
v -1.515781 46.190491 121.996422
v -1.514932 46.286354 122.072968
v -1.567392 46.373016 122.142159
v -1.662773 46.433308 122.190292
v -1.782184 46.644882 121.970383
v -1.901971 46.624195 121.953865
v -1.998411 46.564945 121.906555
v -2.052402 46.478859 121.837822
v -2.053252 46.382996 121.761284
v -2.000791 46.296333 121.692093
v -1.905410 46.236042 121.643951
v -1.786000 46.214062 121.626404
v -1.666212 46.234749 121.642921
v -1.569772 46.293999 121.690231
v -1.515781 46.380085 121.758957
v -1.514932 46.475952 121.835503
v -1.567392 46.562611 121.904694
v -1.662773 46.622902 121.952835
v -2.310927 42.995693 121.842438
v -2.310927 44.017143 123.082672
v -1.625164 42.995693 121.842438
v -1.625165 44.017143 123.082672
v -2.310927 43.342403 122.157806
v -1.625165 43.342403 122.157806
v -2.310927 43.117409 121.953148
v -1.625164 43.117409 121.953148
v -1.625164 42.355453 122.790833
v -2.310927 42.355453 122.790833
v -2.310927 42.076572 122.578827
v -1.625164 42.076572 122.578827
v -2.310927 42.939579 123.468124
v -2.310927 43.103485 123.627739
v -2.310927 43.004898 123.565010
v -1.625165 43.103485 123.627739
v -1.625165 42.939579 123.468124
v -1.625165 43.004898 123.565010
v -2.310927 42.053997 122.637619
v -2.310927 42.135864 122.747589
v -2.310927 42.058937 122.719398
v -1.625164 42.135864 122.747589
v -1.625164 42.053997 122.637619
v -1.625164 42.058937 122.719398
v -2.310927 42.613396 122.849007
v -2.310927 42.776062 122.994598
v -2.310927 42.814995 122.780273
v -2.310927 42.711529 122.903030
v -1.625164 42.776062 122.994598
v -1.625164 42.613396 122.849007
v -1.625164 42.814995 122.780273
v -1.625164 42.711529 122.903030
v -2.310927 43.375378 123.727051
v -2.310927 43.503834 123.692413
v -2.310927 43.444199 123.726761
v -1.625165 43.503834 123.692413
v -1.625165 43.375378 123.727051
v -1.625165 43.444199 123.726761
v 15.017089 32.396904 166.470169
v 14.317933 32.396904 166.470169
v 15.017083 31.982792 164.097229
v 15.017087 32.410568 164.724594
v 14.317927 32.410576 164.724594
v 14.317927 31.982796 164.097229
v 15.017087 32.169827 166.468399
v 15.017087 31.785995 166.078506
v 14.317927 31.785999 166.078506
v 14.317931 32.169830 166.468399
v 15.017083 31.629992 164.654022
v 15.017083 31.629993 164.096008
v 14.317927 31.629993 164.096008
v 14.317927 31.629993 164.654022
v -16.241138 42.627735 124.772614
v -16.354687 42.607590 124.762085
v -16.450947 42.553024 124.727936
v -16.515265 42.472336 124.675377
v -16.537851 42.377815 124.612404
v -16.515265 42.283852 124.548607
v -16.450947 42.204750 124.493698
v -16.354687 42.152554 124.456032
v -16.241138 42.135204 124.441345
v -16.127592 42.155346 124.451874
v -16.031330 42.209915 124.486023
v -15.967012 42.290600 124.538574
v -15.944426 42.385120 124.601547
v -15.967012 42.479084 124.665352
v -16.031330 42.558186 124.720261
v -16.127592 42.610386 124.757927
v -16.365681 42.885902 124.348289
v -16.252132 42.906044 124.358818
v -16.461941 42.831337 124.314148
v -16.526260 42.750648 124.261589
v -16.548847 42.656128 124.198616
v -16.526260 42.562164 124.134819
v -16.461941 42.483063 124.079903
v -16.365681 42.430862 124.042236
v -16.252134 42.413517 124.027550
v -16.138586 42.433659 124.038086
v -16.042326 42.488228 124.072227
v -15.978006 42.568913 124.124786
v -15.955420 42.663433 124.187759
v -15.978006 42.757397 124.251556
v -16.042326 42.836498 124.306473
v -16.138586 42.888699 124.344139
v 15.145719 42.289829 124.850616
v 15.145719 42.407066 124.676308
v 15.145719 42.668060 125.105011
v 15.145719 42.785297 124.930702
v 14.118541 42.289829 124.850616
v 14.118541 42.514206 124.517021
v 14.118541 42.668060 125.105011
v 14.118541 42.892433 124.771408
v 14.568181 42.668060 125.105011
v 14.568181 42.892433 124.771408
v 14.568181 42.289829 124.850616
v 14.568181 42.514206 124.517021
v 13.281144 42.260223 124.859398
v 13.281144 42.400536 124.650780
v 13.281144 42.671074 125.135735
v 13.281144 42.811386 124.927116
v 12.089164 42.260223 124.859398
v 12.089164 42.400536 124.650780
v 12.089162 42.671074 125.135735
v 12.089162 42.811386 124.927116
v 3.971459 75.363724 119.648529
v 3.501435 75.098572 119.596588
v 3.189183 76.699173 119.910095
v 2.956350 76.567818 119.884369
v 3.971459 75.176582 120.604012
v 3.501435 74.911423 120.552078
v 3.189183 76.512024 120.865578
v 2.956350 76.380669 120.839851
v 5.672622 80.584373 101.103897
v 5.202598 80.319214 101.051956
v 4.890349 81.919815 101.365456
v 4.657514 81.788467 101.339729
v 5.672622 80.397232 102.059372
v 5.202598 80.132065 102.007439
v 4.890347 81.732666 102.320938
v 4.657514 81.601318 102.295212
v 3.372340 31.542330 181.350235
v 3.334367 31.833660 180.867355
v 3.935861 31.542864 181.306244
v 3.897885 31.834192 180.823349
v 3.294333 29.748850 180.329346
v 3.308417 29.794014 180.510284
v 3.871936 29.794548 180.466293
v 3.857852 29.749382 180.285355
v 3.323655 31.600153 180.727310
v 3.285874 29.813742 180.221802
v 3.849393 29.814274 180.177795
v 3.887174 31.600685 180.683319
v -19.046036 33.429436 177.677017
v -19.004147 33.517456 177.138062
v -19.325584 33.448002 177.658325
v -19.283695 33.536026 177.119354
v -19.534048 33.265610 177.612335
v -19.492161 33.353630 177.073364
v -19.549316 32.989094 177.565979
v -19.507425 33.077118 177.027023
v -19.362440 32.780441 177.546432
v -19.320551 32.868462 177.007462
v -19.082893 32.761871 177.565125
v -19.041004 32.849895 177.026169
v -18.874428 32.944267 177.611115
v -18.832539 33.032291 177.072144
v -18.859161 33.220779 177.657471
v -18.817272 33.308804 177.118500
v -18.817711 32.714050 177.021332
v -18.859600 32.626026 177.560287
v -18.765106 32.708702 177.581146
v -18.723217 32.796722 177.042175
vn 1.0000 -0.0000 -0.0000
vn -0.0000 0.9370 0.3493
vn -1.0000 -0.0000 -0.0000
vn -0.0000 -0.9370 -0.3493
vn -0.0000 -0.3493 0.9370
vn -0.0000 0.5091 -0.8607
vn -0.0000 -0.6239 0.7815
vn -0.0000 0.6239 -0.7815
vn -0.8008 -0.4680 -0.3737
vn -0.4528 -0.6968 -0.5563
vn 0.4528 0.6968 0.5563
vn 0.0071 0.7815 0.6239
vn 0.0071 0.7814 0.6239
vn -0.0071 -0.7814 -0.6239
vn 0.4400 -0.7018 -0.5603
vn -0.4400 0.7018 0.5603
vn 0.7924 -0.4767 -0.3806
vn -0.7924 0.4767 0.3806
vn 0.8979 -0.3439 -0.2746
vn -0.8979 0.3439 0.2746
vn 1.0000 -0.0054 -0.0043
vn -1.0000 0.0054 0.0043
vn 0.9040 0.3342 0.2668
vn 0.8008 0.4680 0.3737
vn -0.9039 -0.3342 -0.2668
vn -0.0000 0.8079 -0.5894
vn -0.0000 0.7442 -0.6680
vn -0.0000 -0.8948 0.4465
vn -0.0000 -0.8901 0.4558
vn -0.0000 0.6729 -0.7398
vn -0.0000 -0.6253 -0.7804
vn -0.0000 -0.3547 0.9350
vn -0.0000 -0.2066 0.9784
vn -0.0000 -0.2695 0.9630
vn -0.0000 -0.9335 -0.3585
vn -0.0000 -0.9883 -0.1526
vn -0.0000 -0.6977 0.7164
vn -0.0000 -0.4425 0.8967
vn -0.0000 0.7650 0.6440
vn -0.0000 0.6417 0.7669
vn -0.0000 0.6418 0.7669
vn -0.0000 -0.3441 0.9390
vn -0.0000 -0.9982 0.0603
vn -0.0000 -0.6669 0.7451
vn -0.0000 0.2603 0.9655
vn -0.0000 -0.1721 0.9851
vn 0.0001 -0.6240 0.7815
vn -0.0000 -0.6240 0.7815
vn -0.0000 0.6240 -0.7815
vn 0.0001 0.6239 -0.7815
vn -0.9040 -0.3342 -0.2668
vn -0.0000 -0.0078 1.0000
vn -0.0000 1.0000 0.0078
vn -0.0000 0.8262 -0.5634
vn -0.0000 0.0035 -1.0000
vn -0.0000 -0.7126 0.7015
vn -0.0000 -1.0000 -0.0000
vn -0.0000 -0.9985 0.0545
vn -0.0000 -0.9941 0.1089
vn 0.0220 -0.5580 0.8296
vn -0.0220 0.5580 -0.8296
vn -0.7174 0.5691 0.4018
vn -0.3887 0.7597 0.5213
vn -0.3937 0.7579 0.5202
vn -0.7206 0.5663 0.4000
vn 0.7206 -0.5663 -0.4000
vn 0.3937 -0.7579 -0.5202
vn 0.3887 -0.7597 -0.5213
vn 0.7174 -0.5691 -0.4018
vn -0.9296 0.2940 0.2224
vn -0.9306 0.2917 0.2209
vn 0.9306 -0.2917 -0.2209
vn 0.9296 -0.2940 -0.2224
vn -0.9805 0.1498 0.1268
vn 0.9805 -0.1498 -0.1268
vn -0.9296 -0.3169 -0.1884
vn -0.9805 -0.1739 -0.0909
vn -0.9306 -0.3146 -0.1869
vn 0.9306 0.3146 0.1869
vn 0.9805 0.1739 0.0909
vn 0.9296 0.3169 0.1884
vn -0.7174 -0.5868 -0.3756
vn -0.7206 -0.5841 -0.3737
vn 0.7206 0.5841 0.3737
vn 0.7174 0.5868 0.3756
vn -0.3887 -0.7693 -0.5071
vn -0.3937 -0.7676 -0.5058
vn 0.3937 0.7676 0.5058
vn 0.3887 0.7693 0.5071
vn 0.0028 -0.8297 -0.5581
vn -0.0028 -0.8298 -0.5580
vn 0.0028 0.8298 0.5580
vn -0.0028 0.8297 0.5581
vn -0.0000 0.8298 0.5581
vn -0.0000 -0.8298 -0.5581
vn -0.0000 -0.5581 0.8298
vn 0.3154 0.5296 -0.7874
vn -0.0000 0.5581 -0.8298
vn -0.0000 0.1922 -0.9814
vn -0.4984 0.8508 0.1666
vn -0.0000 -0.1922 0.9814
vn 0.4984 -0.8508 -0.1666
vn 0.8670 0.4891 0.0958
vn -0.9397 -0.3357 -0.0658
vn 0.0705 -0.4341 0.8981
vn -0.0393 -0.8569 -0.5139
vn -0.0672 0.5154 -0.8543
vn 0.0393 0.8569 0.5139
vn 0.0197 -0.9704 0.2407
vn 0.9970 0.0009 -0.0778
vn -0.0751 0.2730 -0.9591
vn -0.9970 -0.0009 0.0778
vn 0.0544 0.9848 0.1651
vn -0.6655 0.7431 0.0696
vn -0.9956 0.0661 -0.0666
vn -0.7424 -0.6496 -0.1638
vn -0.0544 -0.9848 -0.1651
vn 0.0765 0.1607 -0.9840
vn 0.9956 -0.0661 0.0666
vn 0.7424 0.6496 0.1638
vn 0.6655 -0.7431 -0.0696
vn -0.5143 -0.8391 -0.1770
vn 0.9051 0.4027 0.1361
vt 0.375000 0.000000
vt 0.589937 0.000000
vt 0.472294 0.250000
vt 0.375000 0.250000
vt 0.472294 0.500000
vt 0.375000 0.500000
vt 0.589937 0.750000
vt 0.375000 0.750000
vt 0.589937 1.000000
vt 0.375000 1.000000
vt 0.125000 0.500000
vt 0.125000 0.750000
vt 0.875000 0.498130
vt 0.875000 0.747835
vt 0.062360 0.399638
vt 0.250000 0.490000
vt 0.483983 0.196595
vt 0.145868 0.033767
vt 0.437640 0.100362
vt 0.354132 0.033767
vt 0.145868 0.466233
vt 0.250000 0.010000
vt 0.354132 0.466233
vt 0.062360 0.100362
vt 0.437640 0.399638
vt 0.016017 0.196595
vt 0.483983 0.303405
vt 0.016017 0.303405
vt 0.625000 0.089595
vt 0.576375 0.000000
vt 0.601021 0.018733
vt 0.625000 0.250000
vt 0.500000 0.500000
vt 0.500000 0.250000
vt 0.395277 0.750000
vt 0.386629 0.743883
vt 0.378665 0.731948
vt 0.576375 0.750000
vt 0.515246 1.000000
vt 0.515246 0.750000
vt 0.418882 0.500000
vt 0.418882 0.250000
vt 0.500000 0.708125
vt 0.625000 0.500000
vt 0.125000 0.723080
vt 0.418882 0.750000
vt 0.473970 0.750000
vt 0.418882 1.000000
vt 0.395277 1.000000
vt 0.375000 0.723080
vt 0.125000 0.731948
vt 0.592001 1.000000
vt 0.576375 1.000000
vt 0.601021 0.750000
vt 0.601021 1.000000
vt 0.875000 0.660405
vt 0.625000 0.660405
vt 0.386126 0.750000
vt 0.375000 0.731948
vt 0.418882 0.000000
vt 0.473969 0.000000
vt 0.496389 0.000000
vt 0.500000 0.041875
vt 0.500000 0.000000
vt 0.502115 0.750000
vt 0.491975 0.750000
vt 0.500000 0.750000
vt 0.473969 1.000000
vt 0.625000 0.681469
vt 0.625000 1.000000
vt 0.619437 0.750000
vt 0.625000 0.750000
vt 0.515246 0.000000
vt 0.590822 0.007131
vt 0.619437 0.056977
vt 0.623082 0.070988
vt 0.623082 0.679012
vt 0.619437 0.693023
vt 0.601021 0.731267
vt 0.590822 0.742869
vt 0.592001 0.750000
vt 0.875000 0.500000
vt 0.386126 1.000000
vt 0.375000 0.026920
vt 0.378665 0.018052
vt 0.395277 0.000000
vt 0.386629 0.006117
vt 0.500000 1.000000
vt 0.875000 0.681469
vt 0.619437 1.000000
vt 0.875000 0.540816
vt 0.875000 0.691121
vt 0.875000 0.750000
vt 0.875000 0.684168
vt 0.625000 0.684168
vt 0.625000 0.540816
vt 0.875000 0.540816
vt 0.625000 0.691121
vt 0.310511 0.396087
vt 0.361810 0.361810
vt 0.396087 0.310511
vt 0.408124 0.250000
vt 0.396087 0.189489
vt 0.361810 0.138190
vt 0.310511 0.103913
vt 0.250000 0.091876
vt 0.189489 0.103913
vt 0.138190 0.138190
vt 0.103913 0.189489
vt 0.091876 0.250000
vt 0.103913 0.310511
vt 0.138190 0.361810
vt 0.189489 0.396087
vt 0.250000 0.408124
vt 0.625000 0.000000
vt 0.375000 0.390564
vt 0.625000 0.390564
vt 0.375000 0.859436
vt 0.625000 0.859436
vt 0.265564 0.500000
vt 0.265564 0.750000
vt 0.734436 0.500000
vt 0.734436 0.750000
vt 0.000000 0.000000
vt 0.396078 0.750000
vt 0.396078 1.000000
vt 0.125000 0.635822
vt 0.375000 0.635823
vt 0.375000 0.691509
vt 0.125000 0.691509
vt 0.581569 0.250000
vt 0.581569 0.500000
vt 0.375000 0.635822
vt 0.396078 0.750000
vt 0.125000 0.266403
vt 0.375000 0.266403
vt 0.375000 0.058491
vt 0.396078 0.000000
vt 0.375000 0.114177
vt 1.000000 0.500000
vt 1.000000 1.000000
vt 0.875000 1.000000
vt 0.750000 1.000000
vt 0.750000 0.500000
vt 0.080294 0.080294
vt 0.010000 0.250000
vt 0.419706 0.419706
vt 0.080294 0.419706
vt 0.419706 0.080294
vt 0.490000 0.250000
vt 0.250000 0.500000
vt 0.250000 1.000000
vt 0.125000 1.000000
vt 0.000000 1.000000
vt 0.000000 0.500000
s 1
usemtl Buttons_Red
f 1/1/1 2/2/1 4/3/1 3/4/1
f 3/4/2 4/3/2 8/5/2 7/6/2
f 7/6/3 8/5/3 6/7/3 5/8/3
f 5/8/4 6/7/4 2/9/4 1/10/4
f 3/11/5 7/6/5 5/8/5 1/12/5
f 8/5/6 4/13/6 2/14/6 6/7/6
f 21/15/7 9/16/7 13/17/7
f 35/15/8 31/18/8 27/17/8
f 14/19/9 29/20/10 15/20/10
f 22/21/11 23/16/12 9/16/13
f 15/20/10 30/22/14 16/22/14
f 16/22/14 31/18/15 17/18/15
f 9/16/13 24/23/16 10/23/16
f 17/18/15 32/24/17 18/24/17
f 11/25/18 24/23/16 25/25/18
f 18/24/17 33/26/19 19/26/19
f 12/27/20 25/25/18 26/27/20
f 19/26/21 34/28/21 20/28/21
f 13/17/22 26/27/22 27/17/22
f 20/28/23 35/15/24 21/15/24
f 14/19/9 27/17/25 28/19/9
f 21/15/24 36/21/11 22/21/11
f 70/29/3 49/30/3 50/31/3
f 38/32/26 42/33/27 41/34/27
f 58/35/1 60/36/1 59/37/1
f 53/38/28 62/39/29 65/40/29
f 41/34/27 44/41/30 43/42/30
f 65/40/1 67/43/1 40/44/1
f 39/6/31 47/45/31 37/11/31
f 37/4/30 44/41/30 39/6/30
f 45/46/1 67/43/1 66/47/1
f 66/47/32 46/48/33 45/46/33
f 45/46/33 56/49/34 58/35/34
f 48/50/35 55/51/36 47/45/35
f 53/38/28 51/52/37 49/53/28
f 51/52/37 52/54/38 50/55/38
f 40/44/39 70/56/40 72/57/41
f 56/49/34 60/58/42 58/35/34
f 57/12/43 59/59/36 60/8/43
f 46/60/3 43/42/3 37/4/3
f 61/61/3 64/62/3 63/63/3
f 64/62/3 62/64/3 63/63/3
f 65/40/1 68/65/1 67/43/1
f 68/65/1 66/66/1 67/43/1
f 62/39/29 68/67/44 65/40/29
f 68/67/44 61/68/32 66/47/32
f 63/63/3 41/34/3 43/42/3
f 70/56/40 74/69/45 72/57/41
f 71/70/45 73/71/46 74/72/45
f 73/71/46 50/55/38 52/54/38
f 9/16/7 10/23/7 11/25/7
f 11/25/7 12/27/47 13/17/7
f 13/17/7 14/19/48 15/20/7
f 15/20/7 16/22/7 17/18/7
f 17/18/7 18/24/48 19/26/7
f 19/26/7 20/28/48 21/15/7
f 21/15/7 22/21/7 9/16/7
f 9/16/7 11/25/7 13/17/7
f 13/17/7 15/20/7 17/18/7
f 17/18/7 19/26/7 13/17/7
f 19/26/7 21/15/7 13/17/7
f 25/25/8 24/23/8 23/16/8
f 23/16/8 36/21/49 35/15/8
f 35/15/8 34/28/50 33/26/8
f 33/26/8 32/24/8 35/15/8
f 32/24/8 31/18/8 35/15/8
f 31/18/8 30/22/8 29/20/8
f 29/20/8 28/19/8 31/18/8
f 28/19/8 27/17/8 31/18/8
f 27/17/8 26/27/49 25/25/8
f 25/25/8 23/16/8 35/15/8
f 27/17/8 25/25/8 35/15/8
f 14/19/9 28/19/9 29/20/10
f 22/21/11 36/21/11 23/16/12
f 15/20/10 29/20/10 30/22/14
f 16/22/14 30/22/14 31/18/15
f 9/16/13 23/16/12 24/23/16
f 17/18/15 31/18/15 32/24/17
f 11/25/18 10/23/16 24/23/16
f 18/24/17 32/24/17 33/26/19
f 12/27/20 11/25/18 25/25/18
f 19/26/21 33/26/21 34/28/21
f 13/17/22 12/27/22 26/27/22
f 20/28/23 34/28/23 35/15/24
f 14/19/9 13/17/51 27/17/25
f 21/15/24 35/15/24 36/21/11
f 41/34/3 63/63/3 38/32/3
f 63/63/3 62/73/3 38/32/3
f 62/73/3 49/30/3 38/32/3
f 49/30/3 51/74/3 50/31/3
f 38/32/3 49/30/3 70/29/3
f 50/31/3 69/75/3 70/29/3
f 69/75/3 71/76/3 70/29/3
f 38/32/26 40/44/26 42/33/27
f 48/50/1 39/6/1 45/46/1
f 39/6/1 44/41/1 45/46/1
f 45/46/1 58/35/1 48/50/1
f 48/50/1 58/35/1 59/37/1
f 53/38/28 49/53/28 62/39/29
f 41/34/27 42/33/27 44/41/30
f 67/43/1 42/33/1 40/44/1
f 40/44/1 72/57/1 53/38/1
f 72/57/1 74/77/1 73/78/1
f 53/38/1 72/57/1 52/79/1
f 73/78/1 52/79/1 72/57/1
f 52/79/1 54/80/1 53/38/1
f 53/38/1 65/40/1 40/44/1
f 39/6/31 48/50/31 47/45/31
f 37/4/30 43/42/30 44/41/30
f 45/46/1 44/41/1 67/43/1
f 44/41/1 42/33/1 67/43/1
f 66/47/32 61/68/32 46/48/33
f 45/46/33 46/48/33 56/49/34
f 48/50/35 59/59/36 55/51/36
f 53/38/28 54/81/37 51/52/37
f 51/52/37 54/81/37 52/54/38
f 40/44/39 38/82/39 70/56/40
f 56/49/34 57/83/42 60/58/42
f 57/12/43 55/51/36 59/59/36
f 37/4/3 47/84/3 46/60/3
f 47/84/3 55/85/3 56/86/3
f 46/60/3 47/84/3 56/86/3
f 55/85/3 57/87/3 56/86/3
f 62/39/29 64/88/44 68/67/44
f 68/67/44 64/88/44 61/68/32
f 43/42/3 46/60/3 63/63/3
f 46/60/3 61/61/3 63/63/3
f 70/56/40 71/89/45 74/69/45
f 71/70/45 69/90/46 73/71/46
f 73/71/46 69/90/46 50/55/38
f 84/44/52 81/82/52 75/82/52 76/44/52
f 81/82/1 82/91/1 85/92/1 86/93/1 77/93/1 78/94/1 75/82/1
f 76/44/53 75/82/53 78/94/53 79/95/53
f 79/95/54 78/94/54 77/93/54 80/72/54
f 86/93/55 87/72/55 80/72/55 77/93/55
f 81/82/56 84/44/56 83/96/56 82/97/56
f 87/72/3 88/98/3 83/96/3 84/44/3 76/44/3 79/95/3 80/72/3
f 87/72/57 86/93/57 85/92/58 88/98/58
f 83/96/59 88/98/58 85/92/58 82/97/59
f 90/99/60 91/100/60 92/101/60 93/102/60 94/103/60 95/104/60 96/105/60 97/106/60 98/107/60 99/108/60 100/109/60 101/110/60 102/111/60 103/112/60 104/113/60 89/114/60
f 105/99/61 106/114/61 120/113/61 119/112/61 118/111/61 117/110/61 116/109/61 115/108/61 114/107/61 113/106/61 112/105/61 111/104/61 110/103/61 109/102/61 108/101/61 107/100/61
f 91/100/62 90/99/63 105/99/64 107/100/65
f 99/108/66 98/107/67 114/107/68 115/108/69
f 92/101/70 91/100/62 107/100/65 108/101/71
f 100/109/72 99/108/66 115/108/69 116/109/73
f 93/102/74 92/101/70 108/101/71 109/102/74
f 101/110/75 100/109/72 116/109/73 117/110/75
f 94/103/76 93/102/77 109/102/77 110/103/78
f 102/111/79 101/110/80 117/110/80 118/111/81
f 95/104/82 94/103/76 110/103/78 111/104/83
f 103/112/84 102/111/79 118/111/81 119/112/85
f 96/105/86 95/104/82 111/104/83 112/105/87
f 104/113/88 103/112/84 119/112/85 120/113/89
f 97/106/90 96/105/86 112/105/87 113/106/91
f 90/99/63 89/114/92 106/114/93 105/99/64
f 89/114/92 104/113/88 120/113/89 106/114/93
f 98/107/67 97/106/90 113/106/91 114/107/68
s 0
f 121/1/1 122/115/1 124/32/1 123/4/1
f 129/116/94 130/117/94 128/44/94 127/6/94
f 127/6/3 128/44/3 126/72/3 125/8/3
f 131/118/95 132/119/95 122/70/95 121/10/95
f 129/120/96 127/6/96 125/8/96 131/121/96
f 130/122/97 124/82/97 122/93/97 132/123/97
f 128/44/98 130/122/98 132/123/98 126/72/98
f 123/11/96 129/120/96 131/121/96 121/12/96
f 125/8/95 126/72/95 132/119/95 131/118/95
f 123/4/94 124/32/94 130/117/94 129/116/94
f 133/124/1 134/124/1 136/124/1 135/124/1
f 135/124/94 136/124/94 140/124/94 139/124/94
f 139/124/3 140/124/3 138/124/3 137/124/3
f 137/124/95 138/124/95 134/124/95 133/124/95
f 135/124/96 139/124/96 137/124/96 133/124/96
f 140/124/98 136/124/98 134/124/98 138/124/98
f 141/1/99 142/115/99 144/32/99 143/4/99
f 143/4/100 144/32/100 148/44/100 147/6/100
f 147/6/101 148/44/101 146/72/101 145/8/101
f 145/8/102 146/72/102 142/70/102 141/10/102
f 143/11/103 147/6/103 145/8/103 141/12/103
f 148/44/104 144/82/104 142/93/104 146/72/104
f 149/1/99 150/115/99 152/32/99 151/4/99
f 151/4/100 152/32/100 156/44/100 155/6/100
f 155/6/101 156/44/101 154/72/101 153/8/101
f 153/8/102 154/72/102 150/70/102 149/10/102
f 151/11/103 155/6/103 153/8/103 149/12/103
f 156/44/104 152/82/104 150/93/104 154/72/104
f 163/125/105 159/72/105 157/70/105 162/126/105
f 166/127/106 167/128/106 164/129/106 161/130/106
f 165/131/107 158/32/107 160/44/107 168/132/107
f 160/44/108 158/82/108 157/93/108 159/72/108
f 161/130/109 164/129/109 163/8/109 162/12/109
f 167/133/110 168/132/110 160/44/110 159/72/110 163/134/110 164/129/110
f 167/128/111 166/127/111 165/135/111 168/136/111
f 161/137/112 162/138/112 157/115/112 158/32/112 165/131/112 166/139/112
f 169/140/113 170/141/113 172/142/113 171/82/113
f 171/82/114 172/142/114 174/143/114 173/144/114
f 173/144/115 174/143/115 176/70/115 175/44/115
f 175/44/116 176/70/116 178/88/116 177/33/116
f 177/33/117 178/88/117 180/10/117 179/6/117
f 180/145/118 182/146/118 188/146/118 185/145/118
f 172/147/118 170/16/118 184/148/118 182/146/118 180/145/118 178/22/118 176/149/118 174/150/118
f 181/151/119 182/152/119 184/153/119 183/11/119
f 183/11/120 184/153/120 170/154/120 169/155/120
f 186/6/121 185/10/121 188/152/121 187/151/121
f 179/6/122 180/10/122 185/10/122 186/6/122
f 182/152/123 181/151/123 187/151/123 188/152/123
