# Blender 4.1.1
# www.blender.org
mtllib G_OpticMain.mtl
o G_OpticMain
v 1.061335 21.271914 234.633286
v 6.676469 15.418453 233.474991
v 3.366172 15.039600 233.400024
v 4.546706 14.428600 233.279114
v 3.971715 14.676292 233.328125
v 4.971258 14.365091 233.266541
v 6.332289 15.020851 233.396317
v 5.690507 14.553322 233.303787
v 2.225716 27.195681 233.995483
v 1.061335 25.699337 234.446075
v 1.640548 27.015942 234.062622
v 1.227247 26.491892 234.228699
v 6.676469 25.699337 234.446075
v 5.512088 27.195681 233.995483
v 6.510557 26.491892 234.228699
v 6.097256 27.015942 234.062622
v 1.061335 21.636490 234.705429
v 1.061335 22.681391 234.735550
v 6.676469 22.681391 234.735550
v 6.676469 21.636490 234.705429
v -14.576169 14.491322 233.679062
v -13.379835 13.185273 233.398529
v -6.676378 13.185273 233.398529
v -5.479986 14.491482 233.679092
v -11.143945 24.285633 235.782837
v -12.867911 22.823927 235.468872
v -7.180971 22.824064 235.468903
v -8.645097 24.285633 235.782837
v -14.351275 13.888105 233.549500
v -13.958280 13.451475 233.455704
v -6.097933 13.451476 233.455704
v -5.704936 13.888106 233.549500
v -12.056106 23.955080 235.711838
v -12.490086 23.561663 235.627335
v -7.561473 23.567028 235.628494
v -7.997386 23.992123 235.719803
v -13.727799 18.629536 234.567932
v -6.324776 18.629839 234.567993
v -1.092530 44.327076 233.128128
v -0.165518 43.747490 233.128128
v 0.453892 42.880074 233.128128
v 0.671400 41.856880 233.128128
v 0.453892 40.833694 233.128128
v -0.165518 39.966278 233.128128
v -1.092530 39.386688 233.128128
v -1.175767 44.327076 233.385071
v -0.319319 43.747490 233.602905
v 0.252941 42.880074 233.748459
v 0.453892 41.856880 233.799561
v 0.252941 40.833694 233.748459
v -0.319319 39.966278 233.602905
v -1.175767 39.386688 233.385071
v -1.412805 44.327076 233.602905
v -0.757308 43.747490 234.005402
v -0.319319 42.880074 234.274338
v -0.165518 41.856880 234.368790
v -0.319319 40.833694 234.274338
v -0.757308 39.966278 234.005402
v -1.412805 39.386688 233.602905
v -1.767558 44.327076 233.748459
v -1.412805 43.747490 234.274338
v -1.175768 42.880074 234.625732
v -1.092531 41.856880 234.749115
v -1.175768 40.833694 234.625732
v -1.412805 39.966278 234.274338
v -1.767558 39.386688 233.748459
v -2.186017 44.327076 233.799561
v -2.186017 43.747490 234.368790
v -2.186017 42.880074 234.749115
v -2.186017 41.856880 234.882675
v -2.186017 40.833694 234.749115
v -2.186017 39.966278 234.368790
v -2.186017 39.386688 233.799561
v -2.186016 39.183163 233.128128
v -2.186016 44.530602 233.128128
v -2.604475 44.327076 233.748459
v -2.959228 43.747490 234.274338
v -3.196266 42.880074 234.625732
v -3.279503 41.856880 234.749115
v -3.196266 40.833694 234.625732
v -2.959228 39.966278 234.274338
v -2.604475 39.386688 233.748459
v -2.959228 44.327076 233.602905
v -3.614725 43.747490 234.005402
v -4.052714 42.880074 234.274338
v -4.206516 41.856880 234.368774
v -4.052714 40.833694 234.274338
v -3.614725 39.966278 234.005402
v -2.959228 39.386688 233.602905
v -3.196266 44.327076 233.385071
v -4.052713 43.747490 233.602905
v -4.624974 42.880074 233.748459
v -4.825925 41.856880 233.799561
v -4.624974 40.833694 233.748459
v -4.052713 39.966278 233.602905
v -3.196266 39.386688 233.385071
v -3.279502 44.327076 233.128128
v -4.206514 43.747490 233.128128
v -4.825924 42.880074 233.128128
v -5.043433 41.856880 233.128128
v -4.825924 40.833694 233.128128
v -4.206514 39.966278 233.128128
v -3.279502 39.386688 233.128128
v -7.841585 45.642139 235.677032
v -5.804760 39.060448 235.677032
v -5.804760 44.846474 235.677032
v -7.841585 38.264782 235.677032
vn -0.0000 0.1563 0.9877
vn -0.0000 -0.1941 0.9810
vn -0.0000 -0.2100 0.9777
vn 0.3944 -0.9100 0.1278
vn 0.6914 -0.6868 0.2240
vn 0.6163 -0.6747 0.4061
vn 0.3513 -0.9038 0.2443
vn 0.8850 -0.3669 0.2867
vn 0.9513 -0.0000 0.3082
vn 0.8476 -0.0000 0.5306
vn 0.7879 -0.3587 0.5005
vn 0.8850 0.3669 0.2867
vn 0.6914 0.6868 0.2240
vn 0.6163 0.6747 0.4061
vn 0.7879 0.3587 0.5005
vn 0.3944 0.9100 0.1278
vn -0.0000 0.9755 0.2202
vn 0.3513 0.9038 0.2443
vn -0.0000 -0.9755 0.2202
vn 0.4194 0.6148 0.6679
vn 0.5146 0.3109 0.7991
vn 0.2476 0.8756 0.4148
vn 0.2476 -0.8756 0.4148
vn 0.5146 -0.3109 0.7991
vn 0.4194 -0.6148 0.6679
vn 0.5445 -0.0000 0.8388
vn 0.1260 -0.8517 0.5086
vn 0.2461 -0.2755 0.9293
vn 0.2074 -0.5669 0.7972
vn 0.2461 0.2755 0.9293
vn 0.2571 -0.0000 0.9664
vn 0.1260 0.8517 0.5086
vn 0.2074 0.5669 0.7972
vn -0.0000 0.8428 0.5383
vn -0.0000 0.5496 0.8354
vn -0.0000 -0.5496 0.8354
vn -0.0000 -0.8428 0.5383
vn -0.0000 -0.0000 1.0000
vn -0.0000 -0.2634 0.9647
vn -0.0000 0.2634 0.9647
vn -0.2074 -0.5669 0.7972
vn -0.1260 -0.8517 0.5086
vn -0.2571 -0.0000 0.9664
vn -0.2461 -0.2755 0.9293
vn -0.2074 0.5669 0.7972
vn -0.2461 0.2755 0.9293
vn -0.1260 0.8517 0.5086
vn -0.2476 0.8756 0.4148
vn -0.2476 -0.8756 0.4148
vn -0.5146 -0.3109 0.7991
vn -0.4194 -0.6148 0.6679
vn -0.5146 0.3109 0.7991
vn -0.5445 -0.0000 0.8388
vn -0.4194 0.6148 0.6679
vn -0.7879 -0.3587 0.5005
vn -0.6163 -0.6747 0.4061
vn -0.7879 0.3587 0.5005
vn -0.8476 -0.0000 0.5306
vn -0.3513 0.9038 0.2443
vn -0.6163 0.6747 0.4061
vn -0.3513 -0.9038 0.2443
vn -0.6914 -0.6868 0.2240
vn -0.3944 -0.9100 0.1278
vn -0.9513 -0.0000 0.3082
vn -0.8850 -0.3669 0.2867
vn -0.6914 0.6868 0.2240
vn -0.8850 0.3669 0.2867
vn -0.3944 0.9100 0.1278
vt 0.625000 0.988012
vt 0.625000 0.761988
vt 0.625000 0.761988
vt 0.625000 0.768667
vt 0.625000 0.785303
vt 0.625000 0.808858
vt 0.625000 0.941142
vt 0.625000 0.964697
vt 0.625000 0.981333
vt 0.625000 0.988012
vt 0.384279 0.801643
vt 0.390084 0.783833
vt 0.404656 0.767438
vt 0.417023 0.758620
vt 0.607647 0.761398
vt 0.572601 0.987457
vt 0.537046 0.986721
vt 0.396363 0.842704
vt 0.390508 0.827487
vt 0.385546 0.812653
vt 0.397025 0.985788
vt 0.387749 0.975032
vt 0.382094 0.959471
vt 0.382094 0.790575
vt 0.387749 0.775013
vt 0.397025 0.764257
vt 0.409842 0.757589
vt 0.497756 0.759430
vt 0.586857 0.761644
vt 0.602640 0.773389
vt 0.611671 0.791136
vt 0.617906 0.820350
vt 0.617906 0.928168
vt 0.610884 0.962649
vt 0.602526 0.977747
vt 0.586854 0.988759
vt 0.497750 0.990699
vt 0.409839 0.992458
vt 0.500000 0.125000
vt 0.500000 0.250000
vt 0.437500 0.250000
vt 0.437500 0.125000
vt 0.500000 0.375000
vt 0.500000 0.500000
vt 0.437500 0.500000
vt 0.437500 0.375000
vt 0.500000 0.625000
vt 0.500000 0.750000
vt 0.437500 0.750000
vt 0.437500 0.625000
vt 0.500000 0.875000
vt 0.468750 1.000000
vt 0.437500 0.875000
vt 0.468750 0.000000
vt 0.375000 0.750000
vt 0.375000 0.625000
vt 0.406250 1.000000
vt 0.375000 0.875000
vt 0.406250 0.000000
vt 0.375000 0.125000
vt 0.375000 0.375000
vt 0.375000 0.250000
vt 0.375000 0.500000
vt 0.343750 0.000000
vt 0.312500 0.125000
vt 0.312500 0.375000
vt 0.312500 0.250000
vt 0.312500 0.625000
vt 0.312500 0.500000
vt 0.312500 0.875000
vt 0.312500 0.750000
vt 0.343750 1.000000
vt 0.250000 0.875000
vt 0.250000 0.750000
vt 0.250000 0.250000
vt 0.250000 0.125000
vt 0.250000 0.500000
vt 0.250000 0.375000
vt 0.250000 0.625000
vt 0.281250 1.000000
vt 0.281250 0.000000
vt 0.187500 0.250000
vt 0.187500 0.125000
vt 0.187500 0.500000
vt 0.187500 0.375000
vt 0.187500 0.750000
vt 0.187500 0.625000
vt 0.218750 1.000000
vt 0.187500 0.875000
vt 0.218750 0.000000
vt 0.156250 1.000000
vt 0.125000 0.875000
vt 0.156250 0.000000
vt 0.125000 0.125000
vt 0.125000 0.375000
vt 0.125000 0.250000
vt 0.125000 0.625000
vt 0.125000 0.500000
vt 0.125000 0.750000
vt 0.062500 0.375000
vt 0.062500 0.250000
vt 0.062500 0.625000
vt 0.062500 0.500000
vt 0.062500 0.875000
vt 0.062500 0.750000
vt 0.062500 0.125000
vt 0.093750 1.000000
vt 0.093750 0.000000
vt 0.000000 0.250000
vt 0.000000 0.125000
vt 0.000000 0.500000
vt 0.000000 0.375000
vt 0.000000 0.750000
vt 0.000000 0.625000
vt 0.031250 1.000000
vt 0.000000 0.875000
vt 0.031250 0.000000
vt 0.394372 0.760473
vt 0.605628 0.760473
vt 0.608402 0.882071
vt 0.391598 0.882071
s 1
usemtl Optics
f 18/1/1 19/2/1 13/3/1 15/4/1 16/5/1 14/6/1 9/7/1 11/8/1 12/9/1 10/10/1
f 6/11/2 8/12/2 7/13/2 2/14/2 20/15/2 17/16/2 1/17/2 3/18/2 5/19/2 4/20/2
f 29/21/3 30/22/3 22/23/3 23/24/3 31/25/3 32/26/3 24/27/3 38/28/3 27/29/3 35/30/3 36/31/3 28/32/3 25/33/3 33/34/3 34/35/3 26/36/3 37/37/3 21/38/3
f 45/39/4 44/40/5 51/41/6 52/42/7
f 43/43/8 42/44/9 49/45/10 50/46/11
f 41/47/12 40/48/13 47/49/14 48/50/15
f 39/51/16 75/52/17 46/53/18
f 74/54/19 45/39/4 52/42/7
f 44/40/5 43/43/8 50/46/11 51/41/6
f 42/44/9 41/47/12 48/50/15 49/45/10
f 40/48/13 39/51/16 46/53/18 47/49/14
f 48/50/15 47/49/14 54/55/20 55/56/21
f 46/53/18 75/57/17 53/58/22
f 74/59/19 52/42/7 59/60/23
f 51/41/6 50/46/11 57/61/24 58/62/25
f 49/45/10 48/50/15 55/56/21 56/63/26
f 47/49/14 46/53/18 53/58/22 54/55/20
f 52/42/7 51/41/6 58/62/25 59/60/23
f 50/46/11 49/45/10 56/63/26 57/61/24
f 74/64/19 59/60/23 66/65/27
f 58/62/25 57/61/24 64/66/28 65/67/29
f 56/63/26 55/56/21 62/68/30 63/69/31
f 54/55/20 53/58/22 60/70/32 61/71/33
f 59/60/23 58/62/25 65/67/29 66/65/27
f 57/61/24 56/63/26 63/69/31 64/66/28
f 55/56/21 54/55/20 61/71/33 62/68/30
f 53/58/22 75/72/17 60/70/32
f 61/71/33 60/70/32 67/73/34 68/74/35
f 66/65/27 65/67/29 72/75/36 73/76/37
f 64/66/28 63/69/31 70/77/38 71/78/39
f 62/68/30 61/71/33 68/74/35 69/79/40
f 60/70/32 75/80/17 67/73/34
f 74/81/19 66/65/27 73/76/37
f 65/67/29 64/66/28 71/78/39 72/75/36
f 63/69/31 62/68/30 69/79/40 70/77/38
f 73/76/37 72/75/36 81/82/41 82/83/42
f 71/78/39 70/77/38 79/84/43 80/85/44
f 69/79/40 68/74/35 77/86/45 78/87/46
f 67/73/34 75/88/17 76/89/47
f 74/90/19 73/76/37 82/83/42
f 72/75/36 71/78/39 80/85/44 81/82/41
f 70/77/38 69/79/40 78/87/46 79/84/43
f 68/74/35 67/73/34 76/89/47 77/86/45
f 76/89/47 75/91/17 83/92/48
f 74/93/19 82/83/42 89/94/49
f 81/82/41 80/85/44 87/95/50 88/96/51
f 79/84/43 78/87/46 85/97/52 86/98/53
f 77/86/45 76/89/47 83/92/48 84/99/54
f 82/83/42 81/82/41 88/96/51 89/94/49
f 80/85/44 79/84/43 86/98/53 87/95/50
f 78/87/46 77/86/45 84/99/54 85/97/52
f 88/96/51 87/95/50 94/100/55 95/101/56
f 86/98/53 85/97/52 92/102/57 93/103/58
f 84/99/54 83/92/48 90/104/59 91/105/60
f 89/94/49 88/96/51 95/101/56 96/106/61
f 87/95/50 86/98/53 93/103/58 94/100/55
f 85/97/52 84/99/54 91/105/60 92/102/57
f 83/92/48 75/107/17 90/104/59
f 74/108/19 89/94/49 96/106/61
f 96/106/61 95/101/56 102/109/62 103/110/63
f 94/100/55 93/103/58 100/111/64 101/112/65
f 92/102/57 91/105/60 98/113/66 99/114/67
f 90/104/59 75/115/17 97/116/68
f 74/117/19 96/106/61 103/110/63
f 95/101/56 94/100/55 101/112/65 102/109/62
f 93/103/58 92/102/57 99/114/67 100/111/64
f 91/105/60 90/104/59 97/116/68 98/113/66
s 0
f 105/118/38 106/119/38 104/120/38 107/121/38
