# Blender 4.1.1
# www.blender.org
mtllib Glass.mtl
o Glass
v 20.708683 158.991867 174.272858
v 20.016981 163.197006 175.746689
v 19.203627 167.356277 177.665253
v 16.343189 175.265274 167.002167
v 17.371571 171.808197 164.393494
v 18.346355 168.297928 161.366730
v 10.777055 194.884583 135.080704
v 14.157161 181.908859 164.684052
v 15.196837 177.746994 173.581253
v 18.554390 170.994522 179.765121
v 20.388876 166.145599 183.507263
v 17.496197 175.309586 132.031433
v 21.430655 155.063095 174.392227
v 21.212458 154.006332 184.933014
v 19.385244 165.350250 152.862839
v 21.498356 161.555710 185.111069
v 16.483446 175.119812 176.278717
v 21.140232 163.881317 184.850067
v 12.671308 187.648193 151.639816
v 14.927074 178.815643 171.511063
v 19.828012 167.668320 182.375580
v 14.136625 185.097092 133.556061
v 21.415756 154.165695 180.112640
v 20.393291 160.237396 163.562088
v 21.281792 154.729538 184.947418
v 17.845320 172.436066 178.553192
v 15.645936 176.737030 174.896042
v 20.839128 164.858582 184.363327
v 21.324799 163.103912 185.060333
v 18.817755 169.175018 178.324280
v 20.998280 157.220215 174.230499
v 20.381634 161.037918 174.780624
v 19.618332 165.324448 176.787842
v 20.290417 165.385681 182.773987
v 20.858999 161.779877 181.717285
v 21.218536 157.430832 180.728699
v 18.426062 170.360657 142.381699
v 18.428360 168.163910 157.711746
v 15.588590 177.483521 165.104813
v 16.717003 174.024460 163.917526
v 17.621881 170.860504 161.235855
v 17.033279 173.730301 172.813248
v 18.135864 169.749084 170.517807
v 19.148998 165.573181 167.579803
v 20.079649 161.632629 165.595322
v 21.322544 155.700287 180.409393
v 21.066767 159.581879 181.180206
v 20.590511 163.680176 182.258606
v 19.737217 167.162903 181.888428
v 16.024265 176.144791 172.989731
v 17.615963 171.793610 171.623764
v 18.627281 167.721176 168.923843
v 19.581636 163.745010 166.012604
v 20.519947 159.543015 167.717926
v 16.169785 176.230942 153.286469
v 18.000599 175.589920 125.895279
v 10.539551 197.201508 129.346481
v 20.058786 168.720291 125.416779
v 18.677353 174.098495 106.405457
v 18.410604 180.011703 98.814728
v 16.419338 188.747086 94.736404
v 13.373951 198.591782 89.797165
v 11.922112 202.915131 101.508591
v 11.765329 203.591064 89.452263
v 18.395603 177.174469 101.620949
v 19.359241 171.080307 115.666061
v 18.390167 178.588348 100.088043
v 18.453007 175.779572 103.675339
v 17.003605 186.472260 95.826584
v 19.712479 169.850067 120.629959
v 15.328019 177.374756 174.187042
v 15.466956 177.075912 174.563721
v 19.207991 169.317078 181.096497
v -24.682789 158.991852 174.272873
v -23.991087 163.197006 175.746704
v -23.177734 167.356277 177.665268
v -20.317297 175.265274 167.002167
v -21.345680 171.808197 164.393509
v -22.320465 168.297928 161.366745
v -14.751159 194.884583 135.080719
v -18.131266 181.908859 164.684052
v -19.170942 177.746994 173.581268
v -22.528498 170.994522 179.765137
v -24.362984 166.145599 183.507278
v -21.470306 175.309586 132.031448
v -25.404762 155.063095 174.392227
v -25.186565 154.006332 184.933029
v -23.359354 165.350250 152.862839
v -25.472462 161.555710 185.111084
v -20.457554 175.119812 176.278732
v -25.114340 163.881317 184.850082
v -16.645414 187.648193 151.639832
v -18.901180 178.815643 171.511078
v -23.802122 167.668320 182.375595
v -18.110729 185.097092 133.556076
v -25.389864 154.165695 180.112656
v -24.367397 160.237396 163.562103
v -25.255899 154.729538 184.947433
v -21.819427 172.436066 178.553207
v -19.620041 176.737030 174.896057
v -24.813234 164.858582 184.363342
v -25.298906 163.103912 185.060349
v -22.791864 169.175018 178.324295
v -24.972387 157.220215 174.230515
v -24.355740 161.037918 174.780640
v -23.592440 165.324448 176.787857
v -24.264524 165.385681 182.774002
v -24.833107 161.779877 181.717300
v -25.192642 157.430832 180.728714
v -22.400169 170.360657 142.381714
v -22.402468 168.163910 157.711746
v -19.562695 177.483521 165.104828
v -20.691111 174.024460 163.917542
v -21.595991 170.860504 161.235870
v -21.007389 173.730301 172.813248
v -22.109972 169.749084 170.517822
v -23.123108 165.573181 167.579819
v -24.053755 161.632629 165.595337
v -25.296652 155.700272 180.409409
v -25.040874 159.581863 181.180222
v -24.564619 163.680161 182.258606
v -23.711327 167.162903 181.888443
v -19.998371 176.144791 172.989746
v -21.590073 171.793610 171.623779
v -22.601391 167.721176 168.923859
v -23.555742 163.745010 166.012619
v -24.494055 159.543015 167.717941
v -20.143890 176.230942 153.286469
v -21.974707 175.589920 125.895294
v -14.513656 197.201508 129.346497
v -24.032894 168.720291 125.416786
v -22.651461 174.098495 106.405457
v -22.384712 180.011703 98.814735
v -20.393446 188.747101 94.736404
v -17.348057 198.591782 89.797173
v -15.896214 202.915131 101.508606
v -15.739434 203.591064 89.452271
v -22.369711 177.174469 101.620956
v -23.333349 171.080307 115.666061
v -22.364275 178.588348 100.088058
v -22.427113 175.779572 103.675339
v -20.977711 186.472260 95.826584
v -23.686588 169.850067 120.629974
v -19.302122 177.374756 174.187057
v -19.441063 177.075912 174.563736
v -23.182100 169.317078 181.096497
v 15.134810 173.904068 181.618759
v 12.371136 179.083374 176.968521
v 2.188186 168.351883 186.696686
v 18.149603 168.252075 186.689453
v 1.575628 179.089508 176.967239
v 16.618666 171.122375 184.114700
v 13.729433 176.538025 179.254242
v 9.328858 168.309464 186.693619
v 6.192513 179.118240 176.982025
v 2.040769 173.828659 181.727142
v 9.380129 173.860748 181.675827
v -1.987051 173.829376 181.740570
v -19.108915 173.904068 181.618774
v -16.345242 179.083374 176.968536
v -6.162290 168.351883 186.696701
v -22.123713 168.252060 186.689468
v -5.549731 179.089508 176.967255
v -20.592773 171.122375 184.114716
v -17.703537 176.538025 179.254257
v -13.302961 168.309448 186.693634
v -10.166617 179.118240 176.982040
v -6.014873 173.828659 181.727158
v -1.987051 168.370682 186.698059
v -1.987052 179.091537 176.966827
v -13.354234 173.860748 181.675842
v -2.067653 185.618530 164.803131
v 8.266283 185.685287 164.835190
v 8.324149 198.397522 137.180450
v 11.668834 185.688736 164.889664
v 12.627037 181.091354 174.625580
v 8.928012 181.090790 174.625183
v 5.572875 198.401245 137.182022
v -1.987051 198.405441 137.183975
v -1.987051 198.397461 137.184158
v 10.187447 191.409866 152.445190
v 12.379192 182.600388 171.505737
v 4.468578 181.090332 174.624954
v 7.380688 198.399460 137.181213
v 2.629624 198.403259 137.182968
v 4.111615 185.660614 164.817886
v 11.450191 181.091232 174.625397
v 10.604095 185.692581 164.859833
v 8.795062 182.597412 171.468063
v 7.077219 191.409012 152.408508
v -2.067653 182.545181 171.445541
v -2.067653 185.622009 164.804062
v -1.987051 198.401459 137.184067
v -2.067653 191.363174 152.387299
v 4.403096 182.580032 171.456070
v 11.257538 182.602722 171.485245
v 9.182492 191.413223 152.425171
v 3.443325 191.392868 152.397110
v -2.067653 191.366379 152.388077
v -2.067653 182.550293 171.446381
v -1.906450 185.618530 164.803146
v -12.240388 185.685287 164.835205
v -12.298253 198.397522 137.180466
v -15.642938 185.688736 164.889679
v -16.601143 181.091354 174.625595
v -12.902115 181.090790 174.625183
v -1.987051 181.089859 174.624756
v -9.546978 198.401245 137.182037
v -1.987051 185.625122 164.805817
v -1.987051 181.074234 174.624695
v -14.161550 191.409866 152.445206
v -16.353294 182.600403 171.505753
v -8.442681 181.090332 174.624969
v -11.354792 198.399475 137.181229
v -6.603728 198.403275 137.182968
v -8.085718 185.660614 164.817902
v -15.424295 181.091232 174.625397
v -14.578198 185.692581 164.859833
v -12.769165 182.597412 171.468079
v -11.051323 191.409012 152.408524
v -1.906450 182.545181 171.445557
v -1.906450 185.622009 164.804077
v -1.987051 191.369492 152.389053
v -1.987051 182.555313 171.447418
v -1.906450 191.363174 152.387314
v -1.987051 181.082047 174.624710
v -8.377199 182.580032 171.456085
v -15.231640 182.602722 171.485260
v -13.156597 191.413223 152.425186
v -7.417428 191.392868 152.397110
v -1.906450 191.366379 152.388092
v -1.906450 182.550293 171.446396
v 6.540559 205.727524 102.573364
v 5.959021 199.997803 131.706924
v -1.830759 199.972351 131.836411
v -10.514668 205.727524 102.573364
v -9.933128 199.997803 131.706924
v -2.143348 205.752991 102.443886
vn 0.9866 0.1631 0.0023
vn 0.9870 0.1603 -0.0123
vn 0.9980 0.0629 -0.0074
vn 0.9968 0.0784 0.0141
vn 0.9871 0.1571 -0.0322
vn 0.9965 0.0667 -0.0498
vn 0.9894 0.0741 -0.1248
vn 1.0000 -0.0014 0.0051
vn 0.9996 0.0069 0.0269
vn 0.9625 0.1744 -0.2077
vn 0.9736 0.1354 -0.1838
vn 0.9845 0.1280 -0.1197
vn 0.9746 0.1701 -0.1460
vn 0.9832 0.1764 -0.0479
vn 0.9773 0.2015 -0.0646
vn 0.9457 0.1708 -0.2767
vn 0.9506 0.2003 -0.2370
vn 0.9642 0.2057 -0.1671
vn 0.9564 0.2040 -0.2090
vn 0.9708 0.2270 -0.0776
vn 0.9660 0.2439 -0.0856
vn 0.9575 0.2660 -0.1116
vn 0.9645 0.2055 -0.1658
vn 0.9583 0.1757 -0.2253
vn 0.9622 0.2031 -0.1813
vn 0.9633 0.2475 -0.1037
vn 0.9493 0.3135 0.0215
vn 0.9316 0.3617 0.0368
vn 0.9154 0.4019 0.0221
vn 0.9470 0.3208 0.0155
vn 0.8944 0.4400 0.0801
vn 0.8872 0.4590 0.0460
vn 0.8818 0.4711 0.0237
vn 0.9139 0.4045 -0.0343
vn 0.9399 0.3390 -0.0401
vn 0.9439 0.3303 -0.0081
vn 0.9644 0.2609 -0.0437
vn 0.9584 0.2808 -0.0502
vn 0.9623 0.2716 -0.0179
vn 0.9568 0.2908 -0.0029
vn 0.9704 0.2402 -0.0238
vn 0.9667 0.2537 -0.0325
vn 0.9647 0.2633 -0.0037
vn 0.9627 0.2706 -0.0001
vn 0.9761 0.2174 0.0010
vn 0.9710 0.2390 -0.0057
vn 0.9613 0.2736 0.0326
vn 0.9621 0.2720 0.0195
vn 0.9813 0.1924 -0.0044
vn 0.9780 0.2086 0.0066
vn 0.9509 0.3077 0.0336
vn 0.9519 0.3051 0.0290
vn 0.9554 0.2940 0.0286
vn 0.9511 0.3064 0.0388
vn 0.9537 0.2975 0.0443
vn 0.9514 0.3046 0.0462
vn 0.9559 0.2840 0.0745
vn 0.9660 0.2529 0.0540
vn -0.9866 0.1631 0.0023
vn -0.9968 0.0784 0.0141
vn -0.9980 0.0629 -0.0074
vn -0.9870 0.1603 -0.0123
vn -0.9965 0.0667 -0.0498
vn -0.9871 0.1571 -0.0322
vn -1.0000 -0.0014 0.0051
vn -0.9894 0.0741 -0.1248
vn -0.9996 0.0069 0.0269
vn -0.9625 0.1744 -0.2077
vn -0.9746 0.1701 -0.1460
vn -0.9845 0.1280 -0.1197
vn -0.9736 0.1354 -0.1838
vn -0.9832 0.1764 -0.0479
vn -0.9773 0.2015 -0.0646
vn -0.9457 0.1708 -0.2767
vn -0.9564 0.2040 -0.2090
vn -0.9642 0.2057 -0.1671
vn -0.9506 0.2003 -0.2370
vn -0.9708 0.2270 -0.0776
vn -0.9660 0.2439 -0.0856
vn -0.9575 0.2660 -0.1116
vn -0.9633 0.2475 -0.1037
vn -0.9622 0.2031 -0.1813
vn -0.9583 0.1757 -0.2253
vn -0.9645 0.2055 -0.1658
vn -0.9493 0.3135 0.0215
vn -0.9470 0.3208 0.0155
vn -0.9154 0.4019 0.0221
vn -0.9316 0.3617 0.0368
vn -0.8944 0.4400 0.0801
vn -0.8872 0.4590 0.0460
vn -0.8818 0.4711 0.0237
vn -0.9139 0.4045 -0.0343
vn -0.9399 0.3390 -0.0401
vn -0.9439 0.3303 -0.0081
vn -0.9584 0.2808 -0.0502
vn -0.9644 0.2609 -0.0437
vn -0.9568 0.2908 -0.0029
vn -0.9623 0.2716 -0.0179
vn -0.9667 0.2537 -0.0325
vn -0.9704 0.2402 -0.0238
vn -0.9627 0.2706 -0.0001
vn -0.9647 0.2633 -0.0037
vn -0.9710 0.2390 -0.0057
vn -0.9761 0.2174 0.0010
vn -0.9621 0.2720 0.0195
vn -0.9613 0.2736 0.0326
vn -0.9780 0.2086 0.0066
vn -0.9813 0.1924 -0.0044
vn -0.9509 0.3077 0.0336
vn -0.9511 0.3064 0.0388
vn -0.9554 0.2940 0.0286
vn -0.9519 0.3051 0.0290
vn -0.9537 0.2975 0.0443
vn -0.9514 0.3046 0.0462
vn -0.9559 0.2840 0.0745
vn -0.9660 0.2529 0.0540
vn 0.0023 0.6686 0.7436
vn 0.0044 0.6681 0.7440
vn -0.0011 0.6682 0.7439
vn 0.0033 0.6713 0.7412
vn 0.0041 0.6700 0.7424
vn 0.0015 0.6714 0.7411
vn 0.0029 0.6722 0.7404
vn -0.0023 0.6686 0.7436
vn -0.0044 0.6681 0.7440
vn 0.0011 0.6682 0.7439
vn -0.0033 0.6713 0.7412
vn -0.0041 0.6700 0.7424
vn -0.0015 0.6714 0.7411
vn -0.0029 0.6722 0.7404
vn -0.0059 0.9067 0.4218
vn -0.0051 0.9074 0.4203
vn -0.0021 0.9065 0.4221
vn -0.0024 0.9037 0.4281
vn -0.0072 0.9059 0.4234
vn -0.0061 0.9062 0.4228
vn -0.0026 0.9017 0.4323
vn -0.0030 0.9005 0.4347
vn -0.0069 0.9082 0.4185
vn -0.0016 0.9091 0.4166
vn -0.0023 0.9088 0.4172
vn -0.0062 0.9081 0.4187
vn -0.0022 0.9079 0.4193
vn -0.0054 0.9077 0.4196
vn -0.0063 0.9079 0.4191
vn -0.0026 0.9084 0.4181
vn -0.0421 0.9068 0.4195
vn -0.0843 0.9044 0.4183
vn -1.0000 0.0005 -0.0051
vn -1.0000 -0.0000 -0.0000
vn -0.9997 -0.0017 0.0246
vn -0.1483 0.8972 0.4160
vn -0.0530 0.9064 0.4191
vn 0.0059 0.9067 0.4218
vn 0.0051 0.9074 0.4203
vn 0.0021 0.9065 0.4221
vn 0.0024 0.9037 0.4281
vn 0.0072 0.9059 0.4234
vn 0.0061 0.9062 0.4228
vn 0.0026 0.9017 0.4323
vn 0.0030 0.9005 0.4347
vn 0.0069 0.9082 0.4185
vn 0.0016 0.9091 0.4166
vn 0.0023 0.9088 0.4172
vn 0.0062 0.9081 0.4187
vn 0.0022 0.9079 0.4193
vn 0.0054 0.9077 0.4196
vn 0.0063 0.9079 0.4191
vn 0.0026 0.9084 0.4181
vn 0.0420 0.9068 0.4195
vn 0.0842 0.9044 0.4183
vn 1.0000 0.0005 -0.0051
vn 1.0000 -0.0000 -0.0000
vn 0.9997 -0.0016 0.0246
vn 0.1483 0.8972 0.4160
vn 0.0529 0.9064 0.4191
vn -0.0000 0.9812 0.1930
vt 0.000000 0.000000
vt 0.000005 0.000000
vt 0.000006 0.000000
vt 0.000009 0.000000
vt 0.000012 0.000000
vt 0.000018 0.000000
vt 0.000061 0.000000
vt 0.000105 0.000000
vt 0.000148 0.000000
vt 0.000192 0.000000
vt 0.001185 0.000000
vt 0.002177 0.000000
s 1
usemtl Glass
f 13/1/1 31/1/2 46/1/3 23/1/4
f 31/1/2 1/1/5 36/1/6 46/1/3
f 46/1/3 36/1/6 16/1/7 25/1/8
f 23/1/4 46/1/3 25/1/8 14/1/9
f 18/1/10 29/1/11 47/1/12 35/1/13
f 29/1/11 16/1/7 36/1/6 47/1/12
f 47/1/12 36/1/6 1/1/5 32/1/14
f 35/1/13 47/1/12 32/1/14 2/1/15
f 11/1/16 28/1/17 48/1/18 34/1/19
f 28/1/17 18/1/10 35/1/13 48/1/18
f 48/1/18 35/1/13 2/1/15 33/1/20
f 34/1/19 48/1/18 33/1/20 3/1/21
f 10/1/22 73/1/23 21/1/24 49/1/25 30/1/26
f 11/1/16 34/1/19 49/1/25 21/1/24
f 3/1/21 30/1/26 49/1/25 34/1/19
f 8/1/27 20/1/28 50/1/29 39/1/30
f 9/1/31 71/1/31 72/1/31 27/1/32 50/1/29 20/1/28
f 17/1/33 26/1/34 50/1/29 27/1/32
f 10/1/22 42/1/35 50/1/29 26/1/34
f 4/1/36 39/1/30 50/1/29 42/1/35
f 3/1/21 43/1/37 51/1/38 30/1/26
f 43/1/37 5/1/39 40/1/40 51/1/38
f 51/1/38 40/1/40 4/1/36 42/1/35
f 30/1/26 51/1/38 42/1/35 10/1/22
f 2/1/15 44/1/41 52/1/42 33/1/20
f 44/1/41 6/1/43 41/1/44 52/1/42
f 52/1/42 41/1/44 5/1/39 43/1/37
f 33/1/20 52/1/42 43/1/37 3/1/21
f 1/1/5 45/1/45 53/1/46 32/1/14
f 45/1/45 15/1/47 38/1/48 53/1/46
f 53/1/46 38/1/48 6/1/43 44/1/41
f 32/1/14 53/1/46 44/1/41 2/1/15
f 15/1/47 45/1/45 54/1/49 24/1/50
f 1/1/5 31/1/2 54/1/49 45/1/45
f 13/1/1 24/1/50 54/1/49 31/1/2
f 7/1/51 19/1/52 55/1/53 22/1/54
f 8/1/27 39/1/30 55/1/53 19/1/52
f 4/1/36 40/1/40 55/1/53 39/1/30
f 5/1/39 41/1/44 55/1/53 40/1/40
f 6/1/43 38/1/48 55/1/53 41/1/44
f 15/1/47 37/1/55 55/1/53 38/1/48
f 12/1/56 22/1/54 55/1/53 37/1/55
s 0
f 56/2/57 62/1/57 64/1/57 63/1/57 57/1/57
f 56/2/58 58/3/58 70/4/58 66/5/58 59/6/58 68/7/58 65/8/58 67/9/58 60/10/58 69/11/58 61/12/58 62/1/58
s 1
f 86/1/59 96/1/60 119/1/61 104/1/62
f 104/1/62 119/1/61 109/1/63 74/1/64
f 119/1/61 98/1/65 89/1/66 109/1/63
f 96/1/60 87/1/67 98/1/65 119/1/61
f 91/1/68 108/1/69 120/1/70 102/1/71
f 102/1/71 120/1/70 109/1/63 89/1/66
f 120/1/70 105/1/72 74/1/64 109/1/63
f 108/1/69 75/1/73 105/1/72 120/1/70
f 84/1/74 107/1/75 121/1/76 101/1/77
f 101/1/77 121/1/76 108/1/69 91/1/68
f 121/1/76 106/1/78 75/1/73 108/1/69
f 107/1/75 76/1/79 106/1/78 121/1/76
f 83/1/80 103/1/81 122/1/82 94/1/83 146/1/84
f 84/1/74 94/1/83 122/1/82 107/1/75
f 76/1/79 107/1/75 122/1/82 103/1/81
f 81/1/85 112/1/86 123/1/87 93/1/88
f 82/1/89 93/1/88 123/1/87 100/1/90 145/1/89 144/1/89
f 90/1/91 100/1/90 123/1/87 99/1/92
f 83/1/80 99/1/92 123/1/87 115/1/93
f 77/1/94 115/1/93 123/1/87 112/1/86
f 76/1/79 103/1/81 124/1/95 116/1/96
f 116/1/96 124/1/95 113/1/97 78/1/98
f 124/1/95 115/1/93 77/1/94 113/1/97
f 103/1/81 83/1/80 115/1/93 124/1/95
f 75/1/73 106/1/78 125/1/99 117/1/100
f 117/1/100 125/1/99 114/1/101 79/1/102
f 125/1/99 116/1/96 78/1/98 114/1/101
f 106/1/78 76/1/79 116/1/96 125/1/99
f 74/1/64 105/1/72 126/1/103 118/1/104
f 118/1/104 126/1/103 111/1/105 88/1/106
f 126/1/103 117/1/100 79/1/102 111/1/105
f 105/1/72 75/1/73 117/1/100 126/1/103
f 88/1/106 97/1/107 127/1/108 118/1/104
f 74/1/64 118/1/104 127/1/108 104/1/62
f 86/1/59 104/1/62 127/1/108 97/1/107
f 80/1/109 95/1/110 128/1/111 92/1/112
f 81/1/85 92/1/112 128/1/111 112/1/86
f 77/1/94 112/1/86 128/1/111 113/1/97
f 78/1/98 113/1/97 128/1/111 114/1/101
f 79/1/102 114/1/101 128/1/111 111/1/105
f 88/1/106 111/1/105 128/1/111 110/1/113
f 85/1/114 110/1/113 128/1/111 95/1/110
s 0
f 129/2/115 130/1/115 136/1/115 137/1/115 135/1/115
f 129/2/116 135/1/116 134/12/116 142/11/116 133/10/116 140/9/116 138/8/116 141/7/116 132/6/116 139/5/116 143/4/116 131/3/116
f 147/1/117 153/1/117 157/1/117 152/1/117
f 148/1/118 155/1/118 157/1/118 153/1/118
f 151/1/119 156/1/119 157/1/119 155/1/119
f 149/1/120 154/1/120 157/1/120 156/1/120
f 150/1/121 152/1/121 157/1/121 154/1/121
f 151/1/122 170/1/122 158/1/122 156/1/122
f 156/1/123 158/1/123 169/1/123 149/1/123
f 159/1/124 164/1/124 171/1/124 165/1/124
f 160/1/125 165/1/125 171/1/125 167/1/125
f 163/1/126 167/1/126 171/1/126 168/1/126
f 161/1/127 168/1/127 171/1/127 166/1/127
f 162/1/128 166/1/128 171/1/128 164/1/128
f 163/1/129 168/1/129 158/1/129 170/1/129
f 168/1/130 161/1/130 169/1/130 158/1/130
f 173/1/131 186/1/131 195/1/131 189/1/131
f 186/1/132 209/1/132 224/1/132 195/1/132
f 195/1/133 224/1/133 207/1/133 183/1/133
f 189/1/134 195/1/134 183/1/134 177/1/134
f 175/1/135 188/1/135 196/1/135 182/1/135
f 188/1/136 173/1/136 189/1/136 196/1/136
f 196/1/137 189/1/137 177/1/137 187/1/137
f 182/1/138 196/1/138 187/1/138 176/1/138
f 175/1/139 181/1/139 197/1/139 188/1/139
f 181/1/140 174/1/140 184/1/140 197/1/140
f 197/1/141 184/1/141 178/1/141 190/1/141
f 188/1/142 197/1/142 190/1/142 173/1/142
f 179/1/143 223/1/143 198/1/143 185/1/143
f 223/1/144 209/1/144 186/1/144 198/1/144
f 198/1/145 186/1/145 173/1/145 190/1/145
f 185/1/146 198/1/146 190/1/146 178/1/146
f 209/1/147 223/1/147 199/1/147 192/1/147
f 223/1/148 179/1/148 193/1/148 199/1/148
f 199/1/149 193/1/149 180/1/149 194/1/149
f 192/1/150 199/1/150 194/1/150 172/1/150
f 210/1/151 226/1/151 200/1/151 191/1/151
f 226/1/152 207/1/152 224/1/152 200/1/152
f 200/1/153 224/1/153 209/1/153 192/1/153
f 191/1/150 200/1/150 192/1/150 172/1/150
f 202/1/154 219/1/154 227/1/154 216/1/154
f 216/1/155 227/1/155 224/1/155 209/1/155
f 227/1/156 213/1/156 207/1/156 224/1/156
f 219/1/157 206/1/157 213/1/157 227/1/157
f 204/1/158 212/1/158 228/1/158 218/1/158
f 218/1/159 228/1/159 219/1/159 202/1/159
f 228/1/160 217/1/160 206/1/160 219/1/160
f 212/1/161 205/1/161 217/1/161 228/1/161
f 204/1/162 218/1/162 229/1/162 211/1/162
f 211/1/163 229/1/163 214/1/163 203/1/163
f 229/1/164 220/1/164 208/1/164 214/1/164
f 218/1/165 202/1/165 220/1/165 229/1/165
f 179/1/166 215/1/166 230/1/166 223/1/166
f 223/1/167 230/1/167 216/1/167 209/1/167
f 230/1/168 220/1/168 202/1/168 216/1/168
f 215/1/169 208/1/169 220/1/169 230/1/169
f 209/1/170 222/1/170 231/1/170 223/1/170
f 223/1/171 231/1/171 193/1/171 179/1/171
f 231/1/172 225/1/172 180/1/172 193/1/172
f 222/1/173 201/1/173 225/1/173 231/1/173
f 210/1/174 221/1/174 232/1/174 226/1/174
f 226/1/175 232/1/175 224/1/175 207/1/175
f 232/1/176 222/1/176 209/1/176 224/1/176
f 221/1/173 201/1/173 222/1/173 232/1/173
f 233/1/177 238/1/177 235/1/177 234/1/177
f 236/1/177 237/1/177 235/1/177 238/1/177
