# Blender 4.1.1
# www.blender.org
mtllib int_warn.mtl
o int_warn
v 15.093523 50.170033 130.023529
v 15.093523 51.901878 130.669144
v 14.144217 49.462475 129.759766
v 14.144218 52.609413 130.932907
v 9.783180 49.462479 129.759766
v 9.783181 52.609413 130.932907
v 8.833878 50.170036 130.023529
v 8.833878 51.901878 130.669144
v 14.425297 50.170033 130.023529
v 14.144218 49.906662 129.925354
v 14.144218 52.165249 130.767334
v 14.425297 51.901878 130.669144
v 9.783180 49.906662 129.925354
v 9.502104 50.170033 130.023529
v 9.502104 51.901878 130.669144
v 9.783181 52.165249 130.767334
v 15.220467 50.171242 129.912994
v 15.220467 51.973328 130.584793
v 14.232658 49.434986 129.638519
v 14.232658 52.709560 130.859253
v 9.694740 49.434986 129.638519
v 9.694740 52.709564 130.859253
v 8.706933 50.171242 129.912994
v 8.706934 51.973328 130.584793
v 14.525137 50.171242 129.912994
v 14.232658 49.897186 129.810822
v 14.232658 52.247383 130.686951
v 14.525137 51.973328 130.584793
v 9.694740 49.897186 129.810822
v 9.402264 50.171242 129.912994
v 9.402264 51.973328 130.584793
v 9.694741 52.247383 130.686951
v 13.559038 52.609413 130.932907
v 13.623745 52.709560 130.859253
v 10.368364 52.609413 130.932907
v 10.303658 52.709560 130.859253
v 4.897455 57.549068 131.119263
v 4.897455 57.576649 131.045273
v 4.897455 58.864620 131.609680
v 4.897455 58.892200 131.535706
v -0.701162 57.549068 131.119263
v -0.701162 57.576653 131.045273
v -0.701161 58.864620 131.609680
v -0.701161 58.892200 131.535706
v -12.172863 50.118877 130.482040
v -12.172863 50.163006 130.363663
v -12.172863 52.715443 131.450012
v -12.172863 52.759571 131.331635
v -13.226463 50.118877 130.482040
v -13.226463 50.163006 130.363663
v -13.226463 52.715443 131.450012
v -13.226463 52.759571 131.331635
v 14.902597 41.829781 114.443016
v 14.614786 41.925392 114.732819
v 14.905806 41.779949 116.253288
v 14.616980 41.891327 115.970200
v 13.091887 41.799545 114.445389
v 13.377104 41.904724 114.734444
v 13.095097 41.749714 116.255661
v 13.379297 41.870663 115.971825
v 14.900791 41.938061 114.445999
v 14.904001 41.888229 116.256271
v 13.093292 41.857994 116.258652
v 13.090082 41.907825 114.448372
v 4.629416 29.440903 180.947678
v 4.613775 29.473396 180.747726
v 4.666119 32.585564 181.455856
v 4.650476 32.618061 181.255890
v 2.635484 29.439018 181.103348
v 2.619843 29.471512 180.903397
v 2.672187 32.583679 181.611511
v 2.656545 32.616177 181.411560
v -13.211781 42.741108 180.827896
v -13.230289 43.811569 181.000061
v -13.395264 42.740311 180.813126
v -13.413774 43.810776 180.985291
v -14.510143 42.735474 180.723358
v -14.528652 43.805935 180.895523
v -15.213520 42.732418 180.666718
v -15.232031 43.802879 180.838898
v -16.282221 42.727779 180.580688
v -16.300730 43.798241 180.752838
v -16.985600 42.724728 180.524048
v -17.004108 43.795189 180.696213
v -13.186493 41.278641 180.592682
v -13.205002 42.349102 180.764862
v -13.369978 41.277847 180.577911
v -13.388489 42.348305 180.750076
v -14.484856 41.273006 180.488144
v -14.503365 42.343468 180.660309
v -15.188234 41.269951 180.431519
v -15.206743 42.340412 180.603683
v -16.256931 41.265312 180.345474
v -16.275440 42.335773 180.517639
v -16.960310 41.262260 180.288834
v -16.978821 42.332718 180.460999
v -18.121706 30.253351 170.219604
v -18.121706 30.364529 170.238327
v -20.121706 30.253344 170.219604
v -20.121706 30.364521 170.238327
v -18.121706 30.585447 168.247375
v -18.121706 30.696625 168.266083
v -20.121706 30.585440 168.247375
v -20.121706 30.696615 168.266083
v -19.947292 30.667652 168.438110
v -19.947292 30.556477 168.419373
v -19.947292 30.393478 170.066360
v -19.947292 30.282301 170.047638
v -18.296116 30.667660 168.438095
v -18.296116 30.556482 168.419373
v -18.296118 30.393484 170.066360
v -18.296116 30.282307 170.047638
vn -0.7618 0.2263 -0.6070
vn 0.6337 0.2702 -0.7248
vn -0.5168 0.7227 -0.4589
vn -0.5168 -0.2459 -0.8200
vn 0.5168 0.7227 -0.4589
vn -0.0000 0.9752 -0.2211
vn 0.5168 -0.2459 -0.8200
vn 0.7618 0.2263 -0.6070
vn -0.0000 0.9999 0.0109
vn -0.6337 0.2702 -0.7248
vn -0.0000 -0.5925 -0.8056
vn -0.0000 -0.7631 -0.6463
vn 1.0000 -0.0000 -0.0000
vn -0.0000 0.9370 0.3493
vn -1.0000 -0.0000 -0.0000
vn -0.0000 -0.9370 -0.3493
vn -0.0000 -0.3493 0.9370
vn -0.0000 0.3493 -0.9370
vn 0.9999 0.0167 -0.0013
vn 0.0018 -0.0275 0.9996
vn -0.9999 -0.0167 0.0013
vn -0.0018 0.0275 -0.9996
vn 0.0167 -0.9995 -0.0275
vn -0.0166 0.9995 0.0275
vn -0.0167 0.9995 0.0275
vn 0.9970 0.0009 -0.0778
vn 0.0115 0.9871 0.1595
vn -0.9970 -0.0009 0.0778
vn -0.0115 -0.9871 -0.1595
vn 0.0770 -0.1599 0.9841
vn -0.0770 0.1599 -0.9841
vn 0.0785 0.1596 -0.9840
vn -0.0000 -0.1660 0.9861
vn -0.0000 0.1660 -0.9861
vn -0.0000 0.9861 0.1660
vn -0.0000 0.1661 -0.9861
vt 0.625000 0.500000
vt 0.625000 0.750000
vt 0.699022 0.750000
vt 0.699022 0.500000
vt 0.625000 0.364999
vt 0.625000 0.000000
vt 0.625000 0.250000
vt 0.625000 0.371671
vt 0.875000 0.750000
vt 0.625000 0.425978
vt 0.000000 0.000000
vt 0.375000 0.000000
vt 0.375000 0.250000
vt 0.375000 0.500000
vt 0.375000 0.750000
vt 0.625000 1.000000
vt 0.375000 1.000000
vt 0.125000 0.500000
vt 0.125000 0.750000
vt 0.875000 0.500000
vt 0.843986 0.718986
vt 0.843986 0.531014
vt 0.656014 0.531014
vt 0.656014 0.718986
vt 0.646804 0.521802
vt 0.646804 0.728199
vt 0.853201 0.728199
vt 0.853201 0.521802
s 1
usemtl Yellow_Warn
f 11/1/1 4/1/1 20/1/1 27/1/1
f 8/1/2 7/2/2 23/2/2 24/1/2
f 9/3/3 25/3/3 26/2/3 10/2/3
f 11/1/4 27/1/4 28/4/4 12/4/4
f 13/5/5 29/5/5 30/6/5 14/6/5
f 3/2/6 19/2/6 21/2/6 5/2/6
f 15/7/7 31/7/7 32/8/7 16/8/7
f 6/1/8 16/8/8 32/8/8 22/1/8
f 1/9/9 17/9/9 25/3/9 9/3/9
f 1/6/10 2/7/10 18/7/10 17/6/10
f 35/1/11 6/1/11 22/1/11 36/1/11
f 2/7/12 12/10/12 28/10/12 18/7/12
f 3/2/1 10/2/1 26/2/1 19/2/1
f 7/11/9 14/11/9 30/11/9 23/11/9
f 5/2/8 21/2/8 29/5/8 13/5/8
f 15/11/12 8/11/12 24/11/12 31/11/12
f 4/1/11 33/1/11 34/1/11 20/1/11
s 0
f 37/12/13 38/6/13 40/7/13 39/13/13
f 39/13/14 40/7/14 44/1/14 43/14/14
f 43/14/15 44/1/15 42/2/15 41/15/15
f 41/15/16 42/2/16 38/16/16 37/17/16
f 39/18/17 43/14/17 41/15/17 37/19/17
f 44/1/18 40/20/18 38/9/18 42/2/18
f 45/12/13 46/6/13 48/7/13 47/13/13
f 47/13/14 48/7/14 52/1/14 51/14/14
f 51/14/15 52/1/15 50/2/15 49/15/15
f 49/15/16 50/2/16 46/16/16 45/17/16
f 47/18/17 51/14/17 49/15/17 45/19/17
f 52/1/18 48/20/18 46/9/18 50/2/18
f 53/12/19 61/6/19 62/7/19 55/13/19
f 55/13/20 62/7/20 63/1/20 59/14/20
f 59/14/21 63/1/21 64/2/21 57/15/21
f 57/15/22 64/2/22 61/16/22 53/17/22
f 55/18/23 59/14/23 57/15/23 53/19/23
f 54/21/24 56/22/24 62/20/24 61/9/24
f 56/22/25 60/23/25 63/1/25 62/20/25
f 60/23/25 58/24/25 64/2/25 63/1/25
f 58/24/25 54/21/25 61/9/25 64/2/25
f 65/12/26 66/6/26 68/7/26 67/13/26
f 67/13/27 68/7/27 72/1/27 71/14/27
f 71/14/28 72/1/28 70/2/28 69/15/28
f 69/15/29 70/2/29 66/16/29 65/17/29
f 67/18/30 71/14/30 69/15/30 65/19/30
f 72/1/31 68/20/31 66/9/31 70/2/31
f 76/1/32 74/20/32 73/9/32 75/2/32
f 80/1/32 78/20/32 77/9/32 79/2/32
f 84/1/32 82/20/32 81/9/32 83/2/32
f 88/1/32 86/20/32 85/9/32 87/2/32
f 92/1/32 90/20/32 89/9/32 91/2/32
f 96/1/32 94/20/32 93/9/32 95/2/32
f 97/12/33 98/6/33 100/7/33 99/13/33
f 99/13/15 100/7/15 104/1/15 103/14/15
f 103/14/34 104/1/34 102/2/34 101/15/34
f 101/15/13 102/2/13 98/16/13 97/17/13
f 104/1/35 105/25/35 109/26/35 111/27/35 98/9/35 102/2/35
f 105/1/15 106/1/15 108/20/15 107/20/15
f 98/9/35 111/27/35 107/28/35 105/25/35 104/1/35 100/20/35
f 107/20/33 108/20/33 112/9/33 111/9/33
f 109/2/36 110/2/36 106/1/36 105/1/36
f 111/9/13 112/9/13 110/2/13 109/2/13
