# Blender 4.1.1
# www.blender.org
mtllib Radome.mtl
o Radome
v 29.076435 157.075134 47.849709
v 27.156099 161.955338 47.849709
v 23.728086 165.152084 47.849709
v 20.541111 166.283203 47.849709
v 8.695563 165.048691 47.849712
v 7.544561 161.678680 47.849712
v 7.123327 157.075134 47.849712
v 7.544561 152.471588 47.849712
v 17.682508 149.101562 47.849709
v 20.541111 147.867065 47.849709
v 23.728086 148.998184 47.849709
v 27.156099 152.194946 47.849709
v 25.968151 157.075134 34.231422
v 24.237988 161.955338 35.064625
v 21.149454 165.152084 36.551983
v 18.278090 166.283203 37.934761
v 7.605618 165.048691 43.078655
v 6.568603 161.678680 43.577606
v 6.189083 157.075134 43.760208
v 6.568603 152.471588 43.577606
v 15.702578 149.101562 39.175060
v 18.278090 147.867065 37.934761
v 21.149454 148.998184 36.551983
v 24.237988 152.194946 35.064625
v 17.258921 157.075134 23.310398
v 16.061613 161.955338 24.811775
v 13.924282 165.152084 27.491907
v 11.937237 166.283203 29.983585
v 4.551660 165.048691 39.252563
v 3.834022 161.678680 40.151642
v 3.571387 157.075134 40.480679
v 3.834022 152.471588 40.151642
v 10.154927 149.101562 32.218529
v 11.937237 147.867065 29.983585
v 13.924282 148.998184 27.491907
v 16.061613 152.194946 24.811775
v 4.673740 157.075134 17.249691
v 4.246426 161.955338 19.121880
v 3.483620 165.152084 22.463947
v 2.774451 166.283203 25.571020
v 0.138566 165.048691 37.129242
v -0.117556 161.678680 38.250374
v -0.211289 157.075134 38.660679
v -0.117556 152.471588 38.250374
v 2.138352 149.101562 28.357950
v 2.774451 147.867065 25.571020
v 3.483620 148.998184 22.463947
v 4.246426 152.194946 19.121880
v -9.294772 157.075134 17.249691
v -8.867458 161.955338 19.121880
v -8.104653 165.152084 22.463947
v -7.395484 166.283203 25.571020
v -4.759603 165.048691 37.129242
v -4.503481 161.678680 38.250374
v -4.409748 157.075134 38.660679
v -4.503481 152.471588 38.250374
v -6.759386 149.101562 28.357950
v -7.395484 147.867065 25.571020
v -8.104653 148.998184 22.463947
v -8.867458 152.194946 19.121880
v -21.879969 157.075134 23.310404
v -20.682659 161.955338 24.811781
v -18.545328 165.152084 27.491911
v -16.558281 166.283203 29.983589
v -9.172702 165.048691 39.252563
v -8.455063 161.678680 40.151642
v -8.192428 157.075134 40.480679
v -8.455063 152.471588 40.151642
v -14.775971 149.101562 32.218533
v -16.558281 147.867065 29.983589
v -18.545328 148.998184 27.491911
v -20.682659 152.194946 24.811781
v -30.589184 157.075134 34.231419
v -28.859020 161.955338 35.064621
v -25.770491 165.152084 36.551979
v -22.899124 166.283203 37.934757
v -12.226656 165.048691 43.078655
v -11.189640 161.678680 43.577606
v -10.810122 157.075134 43.760208
v -11.189640 152.471588 43.577606
v -20.323614 149.101562 39.175060
v -22.899124 147.867065 37.934757
v -25.770491 148.998184 36.551979
v -28.859020 152.194946 35.064621
v -33.697468 157.075134 47.849705
v -31.777134 161.955338 47.849705
v -28.349121 165.152084 47.849709
v -25.162146 166.283203 47.849709
v -13.316602 165.048691 47.849712
v -12.165601 161.678680 47.849712
v -11.744367 157.075134 47.849712
v -12.165601 152.471588 47.849712
v -22.303547 149.101562 47.849709
v -25.162146 147.867065 47.849709
v -28.349121 148.998184 47.849709
v -31.777134 152.194946 47.849705
v -30.589190 157.075134 61.467983
v -28.859026 161.955338 60.634785
v -25.770493 165.152084 59.147427
v -22.899130 166.283203 57.764652
v -12.226659 165.048691 52.620766
v -11.189643 161.678680 52.121815
v -10.810123 157.075134 51.939213
v -11.189643 152.471588 52.121815
v -20.323618 149.101562 56.524353
v -22.899130 147.867065 57.764652
v -25.770493 148.998184 59.147427
v -28.859026 152.194946 60.634785
v -21.879969 157.075134 72.389008
v -20.682659 161.955338 70.887634
v -18.545328 165.152084 68.207504
v -16.558281 166.283203 65.715828
v -9.172702 165.048691 56.446861
v -8.455063 161.678680 55.547779
v -8.192428 157.075134 55.218742
v -8.455063 152.471588 55.547779
v -14.775971 149.101562 63.480888
v -16.558281 147.867065 65.715828
v -18.545328 148.998184 68.207504
v -20.682659 152.194946 70.887634
v -9.294772 157.075134 78.449722
v -8.867458 161.955338 76.577538
v -8.104653 165.152084 73.235474
v -7.395484 166.283203 70.128403
v -4.759603 165.048691 58.570183
v -4.503481 161.678680 57.449047
v -4.409748 157.075134 57.038746
v -4.503481 152.471588 57.449047
v -6.759386 149.101562 67.341469
v -7.395484 147.867065 70.128403
v -8.104653 148.998184 73.235474
v -8.867458 152.194946 76.577538
v 4.673740 157.075134 78.449722
v 4.246426 161.955338 76.577538
v 3.483620 165.152084 73.235474
v 2.774451 166.283203 70.128403
v 0.138566 165.048691 58.570183
v -0.117556 161.678680 57.449047
v -0.211289 157.075134 57.038746
v -0.117556 152.471588 57.449047
v 2.138352 149.101562 67.341469
v 2.774451 147.867065 70.128403
v 3.483620 148.998184 73.235474
v 4.246426 152.194946 76.577538
v 17.258911 157.075134 72.389023
v 16.061602 161.955338 70.887650
v 13.924273 165.152084 68.207520
v 11.937228 166.283203 65.715843
v 4.551656 165.048691 56.446865
v 3.834018 161.678680 55.547783
v 3.571383 157.075134 55.218750
v 3.834018 152.471588 55.547783
v 10.154921 149.101562 63.480896
v 11.937228 147.867065 65.715843
v 13.924273 148.998184 68.207520
v 16.061602 152.194946 70.887650
v 25.968143 157.075134 61.468010
v 24.237984 161.955338 60.634804
v 21.149450 165.152084 59.147446
v 18.278084 166.283203 57.764668
v 7.605616 165.048691 52.620773
v 6.568600 161.678680 52.121822
v 6.189081 157.075134 51.939220
v 6.568600 152.471588 52.121822
v 15.702574 149.101562 56.524368
v 18.278084 147.867065 57.764668
v 21.149450 148.998184 59.147446
v 24.237984 152.194946 60.634804
vn 1.0000 -0.0000 -0.0000
vn 0.9010 -0.0000 -0.4339
vn 0.7670 0.5247 -0.3694
vn 0.8513 0.5247 -0.0000
vn 0.6145 0.7313 -0.2959
vn 0.6820 0.7313 -0.0000
vn 0.3345 0.9424 -0.0000
vn 0.3014 0.9424 -0.1451
vn -0.1036 0.9946 -0.0000
vn -0.0934 0.9946 0.0450
vn -0.9463 0.3232 -0.0000
vn -0.8525 0.3232 0.4108
vn -0.8808 0.2099 0.4245
vn -0.9777 0.2099 -0.0000
vn -0.9008 -0.0000 0.4342
vn -1.0000 -0.0000 -0.0000
vn -0.7510 -0.5523 0.3619
vn -0.8337 -0.5523 -0.0000
vn -0.2841 -0.9490 0.1369
vn -0.3154 -0.9489 -0.0000
vn -0.3965 -0.9180 -0.0000
vn -0.3572 -0.9180 0.1720
vn 0.3345 -0.9424 -0.0000
vn 0.3014 -0.9424 -0.1451
vn 0.6820 -0.7313 -0.0000
vn 0.6145 -0.7313 -0.2959
vn 0.7670 -0.5247 -0.3694
vn 0.8513 -0.5247 -0.0000
vn 0.6235 -0.0000 -0.7818
vn 0.5308 0.5247 -0.6656
vn 0.4252 0.7313 -0.5332
vn 0.2085 0.9424 -0.2615
vn -0.0646 0.9946 0.0810
vn -0.5898 0.3231 0.7401
vn -0.6093 0.2098 0.7647
vn -0.6232 -0.0000 0.7821
vn -0.5196 -0.5522 0.6520
vn -0.1965 -0.9490 0.2465
vn -0.2472 -0.9180 0.3100
vn 0.2085 -0.9424 -0.2615
vn 0.4252 -0.7313 -0.5332
vn 0.5308 -0.5247 -0.6656
vn 0.2225 -0.0000 -0.9749
vn 0.1894 0.5247 -0.8299
vn 0.1518 0.7313 -0.6649
vn 0.0744 0.9424 -0.3261
vn -0.0230 0.9946 0.1010
vn -0.2105 0.3230 0.9227
vn -0.2174 0.2097 0.9533
vn -0.2223 -0.0000 0.9750
vn -0.1854 -0.5522 0.8128
vn -0.0701 -0.9490 0.3073
vn -0.0882 -0.9180 0.3865
vn 0.0744 -0.9424 -0.3261
vn 0.1518 -0.7313 -0.6649
vn 0.1894 -0.5247 -0.8299
vn -0.2225 -0.0000 -0.9749
vn -0.1894 0.5247 -0.8299
vn -0.1518 0.7313 -0.6649
vn -0.0744 0.9424 -0.3261
vn 0.0230 0.9946 0.1010
vn 0.2105 0.3230 0.9227
vn 0.2174 0.2097 0.9533
vn 0.2223 -0.0000 0.9750
vn 0.1854 -0.5522 0.8128
vn 0.0701 -0.9490 0.3073
vn 0.0882 -0.9180 0.3865
vn -0.0744 -0.9424 -0.3261
vn -0.1518 -0.7313 -0.6649
vn -0.1894 -0.5247 -0.8299
vn -0.6235 -0.0000 -0.7818
vn -0.5308 0.5247 -0.6656
vn -0.4252 0.7313 -0.5332
vn -0.2085 0.9424 -0.2615
vn 0.0646 0.9946 0.0810
vn 0.5898 0.3231 0.7401
vn 0.6093 0.2098 0.7647
vn 0.6232 -0.0000 0.7821
vn 0.5196 -0.5522 0.6520
vn 0.1965 -0.9490 0.2465
vn 0.2472 -0.9180 0.3100
vn -0.2085 -0.9424 -0.2615
vn -0.4252 -0.7313 -0.5332
vn -0.5308 -0.5247 -0.6656
vn -0.9010 -0.0000 -0.4339
vn -0.7670 0.5247 -0.3694
vn -0.6145 0.7313 -0.2959
vn -0.3014 0.9424 -0.1451
vn 0.0934 0.9946 0.0450
vn 0.8525 0.3232 0.4108
vn 0.8808 0.2099 0.4245
vn 0.9008 -0.0000 0.4342
vn 0.7510 -0.5523 0.3619
vn 0.2841 -0.9490 0.1369
vn 0.3572 -0.9180 0.1720
vn -0.3014 -0.9424 -0.1451
vn -0.6145 -0.7313 -0.2959
vn -0.7670 -0.5247 -0.3694
vn -0.8513 0.5247 -0.0000
vn -0.6820 0.7313 -0.0000
vn -0.3345 0.9424 -0.0000
vn 0.1036 0.9946 -0.0000
vn 0.9463 0.3232 -0.0000
vn 0.9777 0.2099 -0.0000
vn 0.8337 -0.5523 -0.0000
vn 0.3154 -0.9489 -0.0000
vn 0.3965 -0.9180 -0.0000
vn -0.3345 -0.9424 -0.0000
vn -0.6820 -0.7313 -0.0000
vn -0.8513 -0.5247 -0.0000
vn -0.9010 -0.0000 0.4339
vn -0.7670 0.5247 0.3694
vn -0.6145 0.7313 0.2959
vn -0.3014 0.9424 0.1451
vn 0.0934 0.9946 -0.0450
vn 0.8525 0.3232 -0.4108
vn 0.8808 0.2099 -0.4245
vn 0.9008 -0.0000 -0.4342
vn 0.7510 -0.5523 -0.3619
vn 0.2841 -0.9490 -0.1369
vn 0.3572 -0.9180 -0.1720
vn -0.3014 -0.9424 0.1451
vn -0.6145 -0.7313 0.2959
vn -0.7670 -0.5247 0.3694
vn -0.6235 -0.0000 0.7818
vn -0.5308 0.5247 0.6656
vn -0.4252 0.7313 0.5332
vn -0.2085 0.9424 0.2615
vn 0.0646 0.9946 -0.0810
vn 0.5898 0.3231 -0.7401
vn 0.6093 0.2098 -0.7647
vn 0.6232 -0.0000 -0.7821
vn 0.5196 -0.5522 -0.6520
vn 0.1965 -0.9490 -0.2465
vn 0.2472 -0.9180 -0.3100
vn -0.2085 -0.9424 0.2615
vn -0.4252 -0.7313 0.5332
vn -0.5308 -0.5247 0.6656
vn -0.2225 -0.0000 0.9749
vn -0.1894 0.5247 0.8299
vn -0.1518 0.7313 0.6649
vn -0.0744 0.9424 0.3261
vn 0.0230 0.9946 -0.1010
vn 0.2105 0.3230 -0.9227
vn 0.2174 0.2097 -0.9533
vn 0.2223 -0.0000 -0.9750
vn 0.1854 -0.5522 -0.8128
vn 0.0701 -0.9490 -0.3073
vn 0.0882 -0.9180 -0.3865
vn -0.0744 -0.9424 0.3261
vn -0.1518 -0.7313 0.6649
vn -0.1894 -0.5247 0.8299
vn 0.2225 -0.0000 0.9749
vn 0.1894 0.5247 0.8299
vn 0.1518 0.7313 0.6649
vn 0.0744 0.9424 0.3261
vn -0.0230 0.9946 -0.1010
vn -0.2105 0.3230 -0.9227
vn -0.2174 0.2097 -0.9533
vn -0.2223 -0.0000 -0.9750
vn -0.1854 -0.5522 -0.8128
vn -0.0701 -0.9490 -0.3073
vn -0.0882 -0.9180 -0.3865
vn 0.0744 -0.9424 0.3261
vn 0.1518 -0.7313 0.6649
vn 0.1894 -0.5247 0.8299
vn 0.6235 -0.0000 0.7818
vn 0.5308 0.5247 0.6656
vn 0.4252 0.7313 0.5332
vn 0.2085 0.9424 0.2615
vn -0.0646 0.9946 -0.0810
vn -0.5898 0.3231 -0.7401
vn -0.6093 0.2098 -0.7647
vn -0.6232 -0.0000 -0.7821
vn -0.5196 -0.5522 -0.6520
vn -0.1965 -0.9490 -0.2465
vn -0.2472 -0.9180 -0.3100
vn 0.2085 -0.9424 0.2615
vn 0.4252 -0.7313 0.5332
vn 0.5308 -0.5247 0.6656
vn 0.9010 -0.0000 0.4339
vn 0.7670 0.5247 0.3694
vn 0.6145 0.7313 0.2959
vn 0.3014 0.9424 0.1451
vn -0.0934 0.9946 -0.0450
vn -0.8525 0.3232 -0.4108
vn -0.8808 0.2099 -0.4245
vn -0.9008 -0.0000 -0.4342
vn -0.7510 -0.5523 -0.3619
vn -0.2841 -0.9490 -0.1369
vn -0.3572 -0.9180 -0.1720
vn 0.3014 -0.9424 0.1451
vn 0.6145 -0.7313 0.2959
vn 0.7670 -0.5247 0.3694
vt 0.500000 0.500000
vt 0.571429 0.500000
vt 0.571429 0.583333
vt 0.500000 0.583333
vt 0.571429 0.666667
vt 0.500000 0.666667
vt 0.571429 0.750000
vt 0.500000 0.750000
vt 0.571429 0.833333
vt 0.500000 0.833333
vt 0.571429 0.916667
vt 0.500000 0.916667
vt 0.571429 1.000000
vt 0.500000 1.000000
vt 0.500000 0.000000
vt 0.571429 0.000000
vt 0.571429 0.083333
vt 0.500000 0.083333
vt 0.571429 0.166667
vt 0.500000 0.166667
vt 0.571429 0.250000
vt 0.500000 0.250000
vt 0.571429 0.333333
vt 0.500000 0.333333
vt 0.571429 0.416667
vt 0.500000 0.416667
vt 0.642857 0.500000
vt 0.642857 0.583333
vt 0.642857 0.666667
vt 0.642857 0.750000
vt 0.642857 0.833333
vt 0.642857 0.916667
vt 0.642857 1.000000
vt 0.642857 0.000000
vt 0.642857 0.083333
vt 0.642857 0.166667
vt 0.642857 0.250000
vt 0.642857 0.333333
vt 0.642857 0.416667
vt 0.714286 0.500000
vt 0.714286 0.583333
vt 0.714286 0.666667
vt 0.714286 0.750000
vt 0.714286 0.833333
vt 0.714286 0.916667
vt 0.714286 1.000000
vt 0.714286 0.000000
vt 0.714286 0.083333
vt 0.714286 0.166667
vt 0.714286 0.250000
vt 0.714286 0.333333
vt 0.714286 0.416667
vt 0.785714 0.500000
vt 0.785714 0.583333
vt 0.785714 0.666667
vt 0.785714 0.750000
vt 0.785714 0.833333
vt 0.785714 0.916667
vt 0.785714 1.000000
vt 0.785714 0.000000
vt 0.785714 0.083333
vt 0.785714 0.166667
vt 0.785714 0.250000
vt 0.785714 0.333333
vt 0.785714 0.416667
vt 0.857143 0.500000
vt 0.857143 0.583333
vt 0.857143 0.666667
vt 0.857143 0.750000
vt 0.857143 0.833333
vt 0.857143 0.916667
vt 0.857143 1.000000
vt 0.857143 0.000000
vt 0.857143 0.083333
vt 0.857143 0.166667
vt 0.857143 0.250000
vt 0.857143 0.333333
vt 0.857143 0.416667
vt 0.928571 0.500000
vt 0.928571 0.583333
vt 0.928571 0.666667
vt 0.928571 0.750000
vt 0.928571 0.833333
vt 0.928571 0.916667
vt 0.928571 1.000000
vt 0.928571 0.000000
vt 0.928571 0.083333
vt 0.928571 0.166667
vt 0.928571 0.250000
vt 0.928571 0.333333
vt 0.928571 0.416667
vt 1.000000 0.500000
vt 1.000000 0.583333
vt 1.000000 0.666667
vt 1.000000 0.750000
vt 1.000000 0.833333
vt 1.000000 0.916667
vt 1.000000 1.000000
vt 1.000000 0.000000
vt 1.000000 0.083333
vt 1.000000 0.166667
vt 1.000000 0.250000
vt 1.000000 0.333333
vt 1.000000 0.416667
vt -0.000000 0.500000
vt 0.071429 0.500000
vt 0.071429 0.583333
vt -0.000000 0.583333
vt 0.071429 0.666667
vt -0.000000 0.666667
vt 0.071429 0.750000
vt -0.000000 0.750000
vt 0.071429 0.833333
vt -0.000000 0.833333
vt 0.071429 0.916667
vt -0.000000 0.916667
vt 0.071429 1.000000
vt -0.000000 1.000000
vt -0.000000 0.000000
vt 0.071429 0.000000
vt 0.071429 0.083333
vt -0.000000 0.083333
vt 0.071429 0.166667
vt -0.000000 0.166667
vt 0.071429 0.250000
vt -0.000000 0.250000
vt 0.071429 0.333333
vt -0.000000 0.333333
vt 0.071429 0.416667
vt -0.000000 0.416667
vt 0.142857 0.500000
vt 0.142857 0.583333
vt 0.142857 0.666667
vt 0.142857 0.750000
vt 0.142857 0.833333
vt 0.142857 0.916667
vt 0.142857 1.000000
vt 0.142857 0.000000
vt 0.142857 0.083333
vt 0.142857 0.166667
vt 0.142857 0.250000
vt 0.142857 0.333333
vt 0.142857 0.416667
vt 0.214286 0.500000
vt 0.214286 0.583333
vt 0.214286 0.666667
vt 0.214286 0.750000
vt 0.214286 0.833333
vt 0.214286 0.916667
vt 0.214286 1.000000
vt 0.214286 0.000000
vt 0.214286 0.083333
vt 0.214286 0.166667
vt 0.214286 0.250000
vt 0.214286 0.333333
vt 0.214286 0.416667
vt 0.285714 0.500000
vt 0.285714 0.583333
vt 0.285714 0.666667
vt 0.285714 0.750000
vt 0.285714 0.833333
vt 0.285714 0.916667
vt 0.285714 1.000000
vt 0.285714 0.000000
vt 0.285714 0.083333
vt 0.285714 0.166667
vt 0.285714 0.250000
vt 0.285714 0.333333
vt 0.285714 0.416667
vt 0.357143 0.500000
vt 0.357143 0.583333
vt 0.357143 0.666667
vt 0.357143 0.750000
vt 0.357143 0.833333
vt 0.357143 0.916667
vt 0.357143 1.000000
vt 0.357143 0.000000
vt 0.357143 0.083333
vt 0.357143 0.166667
vt 0.357143 0.250000
vt 0.357143 0.333333
vt 0.357143 0.416667
vt 0.428571 0.500000
vt 0.428571 0.583333
vt 0.428571 0.666667
vt 0.428571 0.750000
vt 0.428571 0.833333
vt 0.428571 0.916667
vt 0.428571 1.000000
vt 0.428571 0.000000
vt 0.428571 0.083333
vt 0.428571 0.166667
vt 0.428571 0.250000
vt 0.428571 0.333333
vt 0.428571 0.416667
s 1
f 1/1/1 13/2/2 14/3/3 2/4/4
f 2/4/4 14/3/3 15/5/5 3/6/6
f 3/6/7 15/5/8 16/7/8 4/8/7
f 4/8/9 16/7/10 17/9/10 5/10/9
f 5/10/11 17/9/12 18/11/13 6/12/14
f 6/12/14 18/11/13 19/13/15 7/14/16
f 7/15/16 19/16/15 20/17/17 8/18/18
f 8/18/18 20/17/17 21/19/19 9/20/20
f 9/20/21 21/19/22 22/21/22 10/22/21
f 10/22/23 22/21/24 23/23/24 11/24/23
f 11/24/25 23/23/26 24/25/27 12/26/28
f 12/26/28 24/25/27 13/2/2 1/1/1
f 13/2/2 25/27/29 26/28/30 14/3/3
f 14/3/3 26/28/30 27/29/31 15/5/5
f 15/5/8 27/29/32 28/30/32 16/7/8
f 16/7/10 28/30/33 29/31/33 17/9/10
f 17/9/12 29/31/34 30/32/35 18/11/13
f 18/11/13 30/32/35 31/33/36 19/13/15
f 19/16/15 31/34/36 32/35/37 20/17/17
f 20/17/17 32/35/37 33/36/38 21/19/19
f 21/19/22 33/36/39 34/37/39 22/21/22
f 22/21/24 34/37/40 35/38/40 23/23/24
f 23/23/26 35/38/41 36/39/42 24/25/27
f 24/25/27 36/39/42 25/27/29 13/2/2
f 25/27/29 37/40/43 38/41/44 26/28/30
f 26/28/30 38/41/44 39/42/45 27/29/31
f 27/29/32 39/42/46 40/43/46 28/30/32
f 28/30/33 40/43/47 41/44/47 29/31/33
f 29/31/34 41/44/48 42/45/49 30/32/35
f 30/32/35 42/45/49 43/46/50 31/33/36
f 31/34/36 43/47/50 44/48/51 32/35/37
f 32/35/37 44/48/51 45/49/52 33/36/38
f 33/36/39 45/49/53 46/50/53 34/37/39
f 34/37/40 46/50/54 47/51/54 35/38/40
f 35/38/41 47/51/55 48/52/56 36/39/42
f 36/39/42 48/52/56 37/40/43 25/27/29
f 37/40/43 49/53/57 50/54/58 38/41/44
f 38/41/44 50/54/58 51/55/59 39/42/45
f 39/42/46 51/55/60 52/56/60 40/43/46
f 40/43/47 52/56/61 53/57/61 41/44/47
f 41/44/48 53/57/62 54/58/63 42/45/49
f 42/45/49 54/58/63 55/59/64 43/46/50
f 43/47/50 55/60/64 56/61/65 44/48/51
f 44/48/51 56/61/65 57/62/66 45/49/52
f 45/49/53 57/62/67 58/63/67 46/50/53
f 46/50/54 58/63/68 59/64/68 47/51/54
f 47/51/55 59/64/69 60/65/70 48/52/56
f 48/52/56 60/65/70 49/53/57 37/40/43
f 49/53/57 61/66/71 62/67/72 50/54/58
f 50/54/58 62/67/72 63/68/73 51/55/59
f 51/55/60 63/68/74 64/69/74 52/56/60
f 52/56/61 64/69/75 65/70/75 53/57/61
f 53/57/62 65/70/76 66/71/77 54/58/63
f 54/58/63 66/71/77 67/72/78 55/59/64
f 55/60/64 67/73/78 68/74/79 56/61/65
f 56/61/65 68/74/79 69/75/80 57/62/66
f 57/62/67 69/75/81 70/76/81 58/63/67
f 58/63/68 70/76/82 71/77/82 59/64/68
f 59/64/69 71/77/83 72/78/84 60/65/70
f 60/65/70 72/78/84 61/66/71 49/53/57
f 61/66/71 73/79/85 74/80/86 62/67/72
f 62/67/72 74/80/86 75/81/87 63/68/73
f 63/68/74 75/81/88 76/82/88 64/69/74
f 64/69/75 76/82/89 77/83/89 65/70/75
f 65/70/76 77/83/90 78/84/91 66/71/77
f 66/71/77 78/84/91 79/85/92 67/72/78
f 67/73/78 79/86/92 80/87/93 68/74/79
f 68/74/79 80/87/93 81/88/94 69/75/80
f 69/75/81 81/88/95 82/89/95 70/76/81
f 70/76/82 82/89/96 83/90/96 71/77/82
f 71/77/83 83/90/97 84/91/98 72/78/84
f 72/78/84 84/91/98 73/79/85 61/66/71
f 73/79/85 85/92/16 86/93/99 74/80/86
f 74/80/86 86/93/99 87/94/100 75/81/87
f 75/81/88 87/94/101 88/95/101 76/82/88
f 76/82/89 88/95/102 89/96/102 77/83/89
f 77/83/90 89/96/103 90/97/104 78/84/91
f 78/84/91 90/97/104 91/98/1 79/85/92
f 79/86/92 91/99/1 92/100/105 80/87/93
f 80/87/93 92/100/105 93/101/106 81/88/94
f 81/88/95 93/101/107 94/102/107 82/89/95
f 82/89/96 94/102/108 95/103/108 83/90/96
f 83/90/97 95/103/109 96/104/110 84/91/98
f 84/91/98 96/104/110 85/92/16 73/79/85
f 85/105/16 97/106/111 98/107/112 86/108/99
f 86/108/99 98/107/112 99/109/113 87/110/100
f 87/110/101 99/109/114 100/111/114 88/112/101
f 88/112/102 100/111/115 101/113/115 89/114/102
f 89/114/103 101/113/116 102/115/117 90/116/104
f 90/116/104 102/115/117 103/117/118 91/118/1
f 91/119/1 103/120/118 104/121/119 92/122/105
f 92/122/105 104/121/119 105/123/120 93/124/106
f 93/124/107 105/123/121 106/125/121 94/126/107
f 94/126/108 106/125/122 107/127/122 95/128/108
f 95/128/109 107/127/123 108/129/124 96/130/110
f 96/130/110 108/129/124 97/106/111 85/105/16
f 97/106/111 109/131/125 110/132/126 98/107/112
f 98/107/112 110/132/126 111/133/127 99/109/113
f 99/109/114 111/133/128 112/134/128 100/111/114
f 100/111/115 112/134/129 113/135/129 101/113/115
f 101/113/116 113/135/130 114/136/131 102/115/117
f 102/115/117 114/136/131 115/137/132 103/117/118
f 103/120/118 115/138/132 116/139/133 104/121/119
f 104/121/119 116/139/133 117/140/134 105/123/120
f 105/123/121 117/140/135 118/141/135 106/125/121
f 106/125/122 118/141/136 119/142/136 107/127/122
f 107/127/123 119/142/137 120/143/138 108/129/124
f 108/129/124 120/143/138 109/131/125 97/106/111
f 109/131/125 121/144/139 122/145/140 110/132/126
f 110/132/126 122/145/140 123/146/141 111/133/127
f 111/133/128 123/146/142 124/147/142 112/134/128
f 112/134/129 124/147/143 125/148/143 113/135/129
f 113/135/130 125/148/144 126/149/145 114/136/131
f 114/136/131 126/149/145 127/150/146 115/137/132
f 115/138/132 127/151/146 128/152/147 116/139/133
f 116/139/133 128/152/147 129/153/148 117/140/134
f 117/140/135 129/153/149 130/154/149 118/141/135
f 118/141/136 130/154/150 131/155/150 119/142/136
f 119/142/137 131/155/151 132/156/152 120/143/138
f 120/143/138 132/156/152 121/144/139 109/131/125
f 121/144/139 133/157/153 134/158/154 122/145/140
f 122/145/140 134/158/154 135/159/155 123/146/141
f 123/146/142 135/159/156 136/160/156 124/147/142
f 124/147/143 136/160/157 137/161/157 125/148/143
f 125/148/144 137/161/158 138/162/159 126/149/145
f 126/149/145 138/162/159 139/163/160 127/150/146
f 127/151/146 139/164/160 140/165/161 128/152/147
f 128/152/147 140/165/161 141/166/162 129/153/148
f 129/153/149 141/166/163 142/167/163 130/154/149
f 130/154/150 142/167/164 143/168/164 131/155/150
f 131/155/151 143/168/165 144/169/166 132/156/152
f 132/156/152 144/169/166 133/157/153 121/144/139
f 133/157/153 145/170/167 146/171/168 134/158/154
f 134/158/154 146/171/168 147/172/169 135/159/155
f 135/159/156 147/172/170 148/173/170 136/160/156
f 136/160/157 148/173/171 149/174/171 137/161/157
f 137/161/158 149/174/172 150/175/173 138/162/159
f 138/162/159 150/175/173 151/176/174 139/163/160
f 139/164/160 151/177/174 152/178/175 140/165/161
f 140/165/161 152/178/175 153/179/176 141/166/162
f 141/166/163 153/179/177 154/180/177 142/167/163
f 142/167/164 154/180/178 155/181/178 143/168/164
f 143/168/165 155/181/179 156/182/180 144/169/166
f 144/169/166 156/182/180 145/170/167 133/157/153
f 145/170/167 157/183/181 158/184/182 146/171/168
f 146/171/168 158/184/182 159/185/183 147/172/169
f 147/172/170 159/185/184 160/186/184 148/173/170
f 148/173/171 160/186/185 161/187/185 149/174/171
f 149/174/172 161/187/186 162/188/187 150/175/173
f 150/175/173 162/188/187 163/189/188 151/176/174
f 151/177/174 163/190/188 164/191/189 152/178/175
f 152/178/175 164/191/189 165/192/190 153/179/176
f 153/179/177 165/192/191 166/193/191 154/180/177
f 154/180/178 166/193/192 167/194/192 155/181/178
f 155/181/179 167/194/193 168/195/194 156/182/180
f 156/182/180 168/195/194 157/183/181 145/170/167
f 157/183/181 1/1/1 2/4/4 158/184/182
f 158/184/182 2/4/4 3/6/6 159/185/183
f 159/185/184 3/6/7 4/8/7 160/186/184
f 160/186/185 4/8/9 5/10/9 161/187/185
f 161/187/186 5/10/11 6/12/14 162/188/187
f 162/188/187 6/12/14 7/14/16 163/189/188
f 163/190/188 7/15/16 8/18/18 164/191/189
f 164/191/189 8/18/18 9/20/20 165/192/190
f 165/192/191 9/20/21 10/22/21 166/193/191
f 166/193/192 10/22/23 11/24/23 167/194/192
f 167/194/193 11/24/25 12/26/28 168/195/194
f 168/195/194 12/26/28 1/1/1 157/183/181
