# Blender 4.1.1
# www.blender.org
mtllib RWSGunOptic.mtl
o RWSGunOptic
v -24.903067 -17.223801 188.571121
v -24.162729 -17.291260 188.571121
v -25.510489 -16.795206 188.571121
v -25.822231 -16.120323 188.571121
v -25.754772 -15.379987 188.571121
v -25.326178 -14.772568 188.571121
v -24.651297 -14.460821 188.571121
v -23.910959 -14.528281 188.571121
v -23.303535 -14.956875 188.571121
v -22.991793 -15.631758 188.571121
v -23.059254 -16.372095 188.571121
v -23.487848 -16.979515 188.571121
v -24.380623 -12.276060 190.627533
v -23.099636 -12.619303 190.627533
v -25.318373 -11.338315 190.627533
v -25.661606 -10.057334 190.627533
v -25.318371 -8.776349 190.627533
v -24.380623 -7.838600 190.627533
v -23.099640 -7.495361 190.627533
v -21.818653 -7.838600 190.627533
v -20.880903 -8.776348 190.627533
v -20.537668 -10.057332 190.627533
v -20.880905 -11.338314 190.627533
v -21.818653 -12.276061 190.627533
v 2.842031 -14.903283 178.445389
v 2.815351 -14.959571 178.445389
v -0.674891 -14.945829 178.445389
v -0.701124 -14.889334 178.445389
v 2.824551 -12.621849 178.445389
v 2.850784 -12.678339 178.445389
v -0.692373 -12.664401 178.445389
v -0.665693 -12.608108 178.445389
vn -0.0000 -0.0000 1.0000
vn -0.0000 -0.0000 -1.0000
vt 0.042154 0.370000
vt 0.250000 0.010000
vt 0.457846 0.370000
vt 0.435152 0.143102
vt 0.435152 0.356898
vt 0.064848 0.356898
vt 0.594263 0.793438
vt 0.592625 0.789303
vt 0.407375 0.789304
vt 0.370000 0.457846
vt 0.250000 0.490000
vt 0.130000 0.457846
vt 0.010000 0.250000
vt 0.042154 0.130000
vt 0.130000 0.042154
vt 0.370000 0.042154
vt 0.457846 0.130000
vt 0.490000 0.250000
vt 0.356898 0.435152
vt 0.250000 0.463795
vt 0.143102 0.435152
vt 0.036205 0.250000
vt 0.064848 0.143102
vt 0.143102 0.064848
vt 0.250000 0.036205
vt 0.356898 0.064848
vt 0.463795 0.250000
vt 0.405737 0.793439
vt 0.405737 0.956562
vt 0.594263 0.956561
vt 0.592625 0.960696
vt 0.407375 0.960697
s 1
f 11/1/1 7/2/1 3/3/1
f 17/4/1 15/5/1 23/6/1
f 31/7/2 32/8/2 29/9/2
f 3/3/1 1/10/1 2/11/1
f 2/11/1 12/12/1 3/3/1
f 12/12/1 11/1/1 3/3/1
f 11/1/1 10/13/1 7/2/1
f 10/13/1 9/14/1 7/2/1
f 9/14/1 8/15/1 7/2/1
f 7/2/1 6/16/1 3/3/1
f 6/16/1 5/17/1 3/3/1
f 5/17/1 4/18/1 3/3/1
f 15/5/1 13/19/1 23/6/1
f 13/19/1 14/20/1 23/6/1
f 14/20/1 24/21/1 23/6/1
f 23/6/1 22/22/1 21/23/1
f 21/23/1 20/24/1 23/6/1
f 20/24/1 19/25/1 23/6/1
f 19/25/1 18/26/1 17/4/1
f 17/4/1 16/27/1 15/5/1
f 19/25/1 17/4/1 23/6/1
f 29/9/2 30/28/2 31/7/2
f 30/28/2 25/29/2 28/30/2
f 28/30/2 25/29/2 27/31/2
f 25/29/2 26/32/2 27/31/2
f 28/30/2 31/7/2 30/28/2
