# Blender 4.1.1
# www.blender.org
mtllib RWSHinge.mtl
o RWSHinge
v -17.154329 -3.447905 162.264069
v -17.154329 -5.617967 162.264069
v -17.154329 -3.447905 161.116211
v -17.154329 -5.617967 161.116211
v -18.037060 -5.124736 162.264069
v -17.766195 -5.617967 162.264069
v -17.766195 -5.617967 161.116211
v -18.037060 -5.124736 161.116211
v -17.911865 -3.447905 162.264069
v -18.037060 -3.675894 162.264069
v -18.037060 -3.675894 161.116211
v -17.911865 -3.447905 161.116211
v -17.154329 -3.447908 173.215088
v -17.154329 -5.617970 173.215088
v -17.154329 -3.447907 172.067230
v -17.154329 -5.617970 172.067230
v -18.037067 -5.124739 173.215088
v -17.766195 -5.617970 173.215088
v -17.766195 -5.617970 172.067230
v -18.037067 -5.124739 172.067230
v -17.911865 -3.447908 173.215088
v -18.037067 -3.675897 173.215088
v -18.037067 -3.675897 172.067230
v -17.911865 -3.447907 172.067230
v -9.776257 -3.447904 162.264069
v -9.776257 -5.617966 162.264069
v -9.776257 -3.447903 161.116211
v -9.776257 -5.617966 161.116211
v -8.893522 -5.124735 162.264069
v -9.164387 -5.617966 162.264069
v -9.164387 -5.617966 161.116211
v -8.893522 -5.124735 161.116211
v -9.018725 -3.447904 162.264069
v -8.893522 -3.675893 162.264069
v -8.893522 -3.675892 161.116211
v -9.018725 -3.447903 161.116211
v -9.776253 -3.447910 173.215088
v -9.776253 -5.617969 173.215088
v -9.776253 -3.447910 172.067230
v -9.776253 -5.617969 172.067230
v -8.893522 -5.124738 173.215088
v -9.164387 -5.617969 173.215088
v -9.164387 -5.617969 172.067230
v -8.893522 -5.124738 172.067230
v -9.018721 -3.447910 173.215088
v -8.893522 -3.675896 173.215088
v -8.893522 -3.675895 172.067230
v -9.018721 -3.447910 172.067230
vn 1.0000 -0.0000 -0.0000
vn -0.0000 -0.0000 -1.0000
vn -0.0000 -0.0000 1.0000
vn -0.0000 1.0000 -0.0000
vn -0.8765 -0.4814 -0.0000
vn -0.0000 -1.0000 -0.0000
vn -0.8765 0.4813 -0.0000
vn -1.0000 -0.0000 -0.0000
vn -0.8765 0.4814 -0.0000
vn 0.8765 -0.4814 -0.0000
vn 0.8765 0.4814 -0.0000
vt 0.625000 0.000000
vt 0.375000 0.250000
vt 0.375000 0.000000
vt 0.548288 0.500000
vt 0.398561 0.500000
vt 0.375000 1.000000
vt 0.548288 0.750000
vt 0.625000 1.000000
vt 0.339541 0.500000
vt 0.125000 0.750000
vt 0.125000 0.500000
vt 0.701712 0.750000
vt 0.701712 0.500000
vt 0.875000 0.500000
vt 0.398561 0.750000
vt 0.339541 0.750000
vt 0.625000 0.423288
vt 0.625000 0.250000
vt 0.375000 0.464541
vt 0.375000 0.785459
vt 0.625000 0.826712
vt 0.875000 0.750000
s 0
f 2/1/1 3/2/1 1/3/1
f 8/4/2 11/5/2 3/2/2
f 1/6/3 5/7/3 2/8/3
f 12/9/4 1/10/4 3/11/4
f 6/12/5 8/4/5 7/13/5
f 4/14/6 6/12/6 7/13/6
f 12/9/7 10/15/7 9/16/7
f 8/4/8 10/15/8 11/5/8
f 14/1/1 15/2/1 13/3/1
f 20/4/2 23/5/2 15/2/2
f 13/6/3 17/7/3 14/8/3
f 24/9/4 13/10/4 15/11/4
f 18/12/5 20/4/5 19/13/5
f 16/14/6 18/12/6 19/13/6
f 24/9/9 22/15/9 21/16/9
f 20/4/8 22/15/8 23/5/8
f 27/2/8 26/1/8 25/3/8
f 32/4/2 31/17/2 28/18/2
f 29/7/3 34/15/3 25/6/3
f 25/10/4 36/9/4 27/11/4
f 32/4/10 30/12/10 31/13/10
f 30/12/6 28/14/6 31/13/6
f 34/15/11 36/9/11 33/16/11
f 34/15/1 32/4/1 35/5/1
f 39/2/8 38/1/8 37/3/8
f 44/4/2 43/17/2 40/18/2
f 41/7/3 46/15/3 37/6/3
f 37/10/4 48/9/4 39/11/4
f 44/4/10 42/12/10 43/13/10
f 42/12/6 40/14/6 43/13/6
f 46/15/11 48/9/11 45/16/11
f 46/15/1 44/4/1 47/5/1
f 2/1/1 4/18/1 3/2/1
f 12/19/2 3/2/2 11/5/2
f 3/2/2 4/18/2 8/4/2
f 4/18/2 7/17/2 8/4/2
f 1/6/3 9/20/3 10/15/3
f 10/15/3 5/7/3 1/6/3
f 5/7/3 6/21/3 2/8/3
f 12/9/4 9/16/4 1/10/4
f 6/12/5 5/7/5 8/4/5
f 4/14/6 2/22/6 6/12/6
f 12/9/7 11/5/7 10/15/7
f 8/4/8 5/7/8 10/15/8
f 14/1/1 16/18/1 15/2/1
f 24/19/2 15/2/2 23/5/2
f 15/2/2 16/18/2 20/4/2
f 16/18/2 19/17/2 20/4/2
f 13/6/3 21/20/3 22/15/3
f 22/15/3 17/7/3 13/6/3
f 17/7/3 18/21/3 14/8/3
f 24/9/4 21/16/4 13/10/4
f 18/12/5 17/7/5 20/4/5
f 16/14/6 14/22/6 18/12/6
f 24/9/9 23/5/9 22/15/9
f 20/4/8 17/7/8 22/15/8
f 27/2/8 28/18/8 26/1/8
f 28/18/2 27/2/2 32/4/2
f 27/2/2 36/19/2 35/5/2
f 32/4/2 27/2/2 35/5/2
f 34/15/3 33/20/3 25/6/3
f 25/6/3 26/8/3 29/7/3
f 26/8/3 30/21/3 29/7/3
f 25/10/4 33/16/4 36/9/4
f 32/4/10 29/7/10 30/12/10
f 30/12/6 26/22/6 28/14/6
f 34/15/11 35/5/11 36/9/11
f 34/15/1 29/7/1 32/4/1
f 39/2/8 40/18/8 38/1/8
f 40/18/2 39/2/2 44/4/2
f 39/2/2 48/19/2 47/5/2
f 44/4/2 39/2/2 47/5/2
f 46/15/3 45/20/3 37/6/3
f 37/6/3 38/8/3 41/7/3
f 38/8/3 42/21/3 41/7/3
f 37/10/4 45/16/4 48/9/4
f 44/4/10 41/7/10 42/12/10
f 42/12/6 38/22/6 40/14/6
f 46/15/11 47/5/11 48/9/11
f 46/15/1 41/7/1 44/4/1
