# Blender 4.1.1
# www.blender.org
mtllib TOptic_Black.mtl
o TOptic_Black
v 9.989909 192.767639 52.675831
v 11.570000 192.745972 52.686539
v 13.212693 194.889786 51.626995
v 14.018441 199.948868 49.126625
v 12.151144 201.244415 48.486324
v 11.344593 201.244415 48.486324
v 9.980186 201.244415 48.486320
v 7.249906 201.244415 48.486320
v 5.419846 201.246735 48.485172
v 5.365870 197.445038 50.364105
v 5.328864 194.838455 51.652363
v 7.391150 192.796127 52.661751
v 14.660553 197.831573 50.173058
v 14.219269 196.381500 50.889732
v 13.814514 195.646576 51.252960
v 14.492027 197.121124 50.524189
v 14.507778 198.899597 49.645210
v 11.736464 192.457077 52.829323
v 9.985510 192.481079 52.817459
v 13.474610 194.725464 51.708210
v 14.089757 195.499008 51.325893
v 12.260397 201.530991 48.344685
v 14.280827 200.129196 49.037495
v 11.344593 201.530991 48.344685
v 9.980186 201.530991 48.344681
v 7.250133 201.530991 48.344681
v 5.104219 201.533722 48.343334
v 5.046221 197.448685 50.362301
v 5.007617 194.729553 51.706181
v 7.247766 192.511093 52.802624
v 14.819366 198.974426 49.608223
v 14.984549 197.819672 50.178947
v 14.801058 197.046112 50.561260
v 14.515785 196.272568 50.943577
v 15.925562 189.375015 52.109688
v 17.711090 190.114609 50.931934
v 18.450680 191.900146 50.444096
v 17.711088 193.685669 50.931934
v 15.925559 194.425262 52.109688
v 14.140031 193.685669 53.287437
v 13.400441 191.900131 53.775280
v 14.140033 190.114609 53.287437
v 18.221087 191.900146 50.595539
v 17.564289 193.485779 51.028767
v 15.925560 194.164566 52.109688
v 14.286831 193.485779 53.190609
v 13.630035 191.900131 53.623837
v 14.286832 190.314499 53.190609
v 15.925562 189.635712 52.109688
v 17.564289 190.314499 51.028767
vn -0.0000 0.4431 0.8965
vn 0.5506 -0.0000 0.8348
vt 0.358362 0.449807
vt 0.256026 0.471807
vt 0.250000 0.490000
vt 0.370000 0.457846
vt 0.439847 0.366807
vt 0.457846 0.370000
vt 0.449543 0.349874
vt 0.461865 0.355000
vt 0.437680 0.131658
vt 0.476588 0.246541
vt 0.490000 0.250000
vt 0.457846 0.130000
vt 0.369261 0.072637
vt 0.370000 0.042154
vt 0.258033 0.036314
vt 0.250000 0.010000
vt 0.131232 0.065336
vt 0.130000 0.042154
vt 0.054353 0.130618
vt 0.042154 0.130000
vt 0.029560 0.252676
vt 0.010000 0.250000
vt 0.054418 0.365231
vt 0.042154 0.370000
vt 0.137649 0.448364
vt 0.130000 0.457846
vt 0.470913 0.278011
vt 0.464044 0.305730
vt 0.473923 0.310000
vt 0.481962 0.280000
vt 0.458894 0.320263
vt 0.454405 0.335091
vt 0.465885 0.340000
vt 0.469904 0.325000
vt 0.405753 0.099292
vt 0.468178 0.250000
vt 0.419706 0.080294
vt 0.094247 0.099292
vt 0.250000 0.034777
vt 0.080294 0.080294
vt 0.094247 0.400708
vt 0.031822 0.250000
vt 0.080294 0.419706
vt 0.250000 0.465223
vt 0.405753 0.400708
vt 0.419706 0.419706
s 0
usemtl Black
f 2/1/1 1/2/1 19/3/1 18/4/1
f 3/5/1 2/1/1 18/4/1 20/6/1
f 15/7/1 3/5/1 20/6/1 21/8/1
f 5/9/1 4/10/1 23/11/1 22/12/1
f 6/13/1 5/9/1 22/12/1 24/14/1
f 7/15/1 6/13/1 24/14/1 25/16/1
f 8/17/1 7/15/1 25/16/1 26/18/1
f 9/19/1 8/17/1 26/18/1 27/20/1
f 10/21/1 9/19/1 27/20/1 28/22/1
f 11/23/1 10/21/1 28/22/1 29/24/1
f 12/25/1 11/23/1 29/24/1 30/26/1
f 1/2/1 12/25/1 30/26/1 19/3/1
f 17/27/1 13/28/1 32/29/1 31/30/1
f 16/31/1 14/32/1 34/33/1 33/34/1
f 14/32/1 15/7/1 21/8/1 34/33/1
f 13/28/1 16/31/1 33/34/1 32/29/1
f 4/10/1 17/27/1 31/30/1 23/11/1
f 44/35/2 43/36/2 37/11/2 38/37/2
f 46/38/2 45/39/2 39/16/2 40/40/2
f 48/41/2 47/42/2 41/22/2 42/43/2
f 49/44/2 48/41/2 42/43/2 35/3/2
f 50/45/2 49/44/2 35/3/2 36/46/2
f 43/36/2 50/45/2 36/46/2 37/11/2
f 45/39/2 44/35/2 38/37/2 39/16/2
f 47/42/2 46/38/2 40/40/2 41/22/2
